<?xml version="1.0" standalone="no"?>
 <!DOCTYPE svg PUBLIC "-//W3C//DTD SVG 1.1//EN" 
 "http://www.w3.org/Graphics/SVG/1.1/DTD/svg11.dtd"> 
<svg
  xmlns:svg="http://www.w3.org/2000/svg"
  xmlns="http://www.w3.org/2000/svg"
  xmlns:xlink="http://www.w3.org/1999/xlink"
  version="1.1"
  width="297.0022mm" height="210.0072mm" viewBox="0.0000 0.0000 297.0022 210.0072">
<title>SVG Image created as solder_Hackclub-B_Silkscreen.svg date 2025/05/24 18:35:03 </title>
  <desc>Image generated by PCBNEW </desc>
<g style="fill:#000000; fill-opacity:1.0000;stroke:#000000; stroke-opacity:1.0000;
stroke-linecap:round; stroke-linejoin:round;"
 transform="translate(0 0) scale(1 1)">
</g>
<g style="fill:none; 
stroke:#000000; stroke-width:0.1000; stroke-opacity:1; 
stroke-linecap:round; stroke-linejoin:round;">
<path d="M147.5000 110.5000
L147.0000 111.0000
" />
<path d="M150.0000 50.0000
L152.5000 51.0000
" />
<path d="M125.5000 121.5000
L127.0000 121.0000
" />
<path d="M131.5000 84.5000
L131.0000 86.0000
" />
<path d="M146.5000 84.5000
L148.0000 85.5000
" />
<path d="M144.5000 123.5000
L145.5000 123.0000
" />
<path d="M164.5000 55.5000
L163.5000 54.0000
" />
<path d="M149.0000 121.0000
L151.0000 121.0000
" />
<path d="M151.0000 121.0000
L152.0000 122.0000
" />
<path d="M124.0000 129.0000
L123.5000 127.5000
" />
<path d="M132.0000 122.5000
L130.0000 123.5000
" />
<path d="M139.0000 74.0000
L135.0000 67.0000
" />
<path d="M117.0000 48.0000
L121.5000 50.0000
" />
<path d="M128.0000 101.5000
L127.5000 101.0000
" />
<path d="M151.5000 110.5000
L150.0000 109.5000
" />
<path d="M154.0000 125.5000
L154.0000 128.0000
" />
<path d="M126.5000 109.0000
L127.5000 109.5000
" />
<path d="M152.0000 122.0000
L153.5000 124.0000
" />
<path d="M148.0000 126.0000
L147.0000 128.5000
" />
<path d="M130.5000 122.5000
L132.0000 122.5000
" />
<path d="M113.0000 52.5000
L110.0000 48.0000
" />
<path d="M138.0000 125.5000
L143.0000 125.0000
" />
<path d="M133.5000 123.5000
L134.5000 125.0000
" />
<path d="M152.0000 122.0000
L156.0000 119.0000
" />
<path d="M154.0000 58.0000
L156.0000 59.0000
" />
<path d="M109.0000 69.0000
L109.0000 73.0000
" />
<path d="M120.5000 79.5000
L117.5000 77.0000
" />
<path d="M150.0000 101.5000
L148.0000 104.0000
" />
<path d="M113.5000 103.5000
L115.0000 107.5000
" />
<path d="M131.5000 116.5000
L130.5000 114.5000
" />
<path d="M148.5000 108.0000
L150.0000 105.5000
" />
<path d="M131.0000 80.0000
L126.5000 81.0000
" />
<path d="M130.0000 108.5000
L128.0000 105.5000
" />
<path d="M128.0000 120.5000
L130.0000 122.0000
" />
<path d="M159.5000 77.5000
L155.5000 80.5000
" />
<path d="M143.5000 128.5000
L144.0000 125.5000
" />
<path d="M144.0000 125.5000
L144.5000 123.5000
" />
<path d="M169.5000 71.5000
L169.5000 65.5000
" />
<path d="M126.5000 51.5000
L130.5000 49.5000
" />
<path d="M148.0000 124.5000
L148.0000 126.0000
" />
<path d="M168.5000 74.5000
L169.5000 71.5000
" />
<path d="M148.0000 121.5000
L149.0000 121.0000
" />
<path d="M117.0000 112.0000
L119.5000 115.5000
" />
<path d="M127.0000 121.0000
L128.0000 120.5000
" />
<path d="M142.5000 77.5000
L139.0000 85.5000
" />
<path d="M105.5000 89.5000
L105.0000 94.0000
" />
<path d="M138.0000 116.0000
L136.5000 117.5000
" />
<path d="M129.2500 125.5000
L129.5000 126.5000
" />
<path d="M129.0000 124.5000
L127.0000 128.0000
" />
<path d="M134.0000 126.5000
L133.5000 123.5000
" />
<path d="M132.5000 130.0000
L133.0000 130.0000
" />
<path d="M149.0000 125.0000
L148.0000 121.5000
" />
<path d="M112.0000 94.0000
L112.5000 96.5000
" />
<path d="M108.0000 82.0000
L105.5000 89.5000
" />
<path d="M157.0000 108.5000
L155.5000 110.0000
" />
<path d="M119.0000 90.0000
L112.0000 87.0000
" />
<path d="M168.0000 108.0000
L171.5000 101.0000
" />
<path d="M117.5000 77.0000
L115.5000 74.0000
" />
<path d="M147.0000 128.5000
L145.5000 130.0000
" />
<path d="M118.5000 56.0000
L113.0000 52.5000
" />
<path d="M107.5000 40.5000
L108.0000 39.0000
" />
<path d="M156.5000 104.5000
L158.0000 103.0000
" />
<path d="M144.0000 117.5000
L145.0000 117.0000
" />
<path d="M119.5000 84.5000
L124.5000 85.5000
" />
<path d="M130.5000 105.0000
L136.0000 108.0000
" />
<path d="M147.0000 122.5000
L148.0000 121.5000
" />
<path d="M164.5000 80.5000
L168.5000 74.5000
" />
<path d="M167.5000 97.5000
L167.5000 101.5000
" />
<path d="M169.5000 45.0000
L168.0000 49.0000
" />
<path d="M115.5000 74.0000
L114.5000 70.0000
" />
<path d="M162.5000 65.0000
L163.0000 70.5000
" />
<path d="M143.0000 125.0000
L144.0000 124.5000
" />
<path d="M120.5000 107.5000
L120.0000 105.0000
" />
<path d="M130.0000 123.5000
L129.2500 125.5000
" />
<path d="M133.5000 114.0000
L136.0000 115.5000
" />
<circle cx="151.5000" cy="68.5000" r="5.4083" /> 
<path d="M147.0000 122.5000
L148.0000 123.5000
" />
<path d="M150.5000 102.5000
L150.5000 101.0000
" />
<path d="M172.5000 90.0000
L171.5000 85.5000
" />
<path d="M126.0000 110.5000
L124.0000 110.5000
" />
<path d="M145.5000 123.0000
L147.0000 122.5000
" />
<path d="M153.5000 124.0000
L154.0000 125.5000
" />
<path d="M167.5000 84.5000
L164.5000 87.0000
" />
<path d="M135.0000 77.0000
L131.0000 80.0000
" />
<path d="M112.0000 87.0000
L108.0000 82.0000
" />
<path d="M108.0000 44.0000
L107.5000 40.5000
" />
<path d="M124.0000 58.0000
L118.5000 56.0000
" />
<path d="M158.0000 89.0000
L154.5000 89.0000
" />
<path d="M153.5000 130.0000
L152.0000 129.0000
" />
<path d="M131.0000 86.0000
L126.5000 89.0000
" />
<path d="M173.0000 94.0000
L172.5000 90.0000
" />
<path d="M150.0000 105.5000
L150.5000 102.5000
" />
<path d="M153.5000 111.0000
L151.5000 110.5000
" />
<path d="M165.0000 113.0000
L168.0000 108.0000
" />
<path d="M164.5000 101.5000
L166.0000 94.5000
" />
<path d="M136.0000 115.5000
L138.0000 116.0000
" />
<path d="M160.5000 112.0000
L164.5000 101.5000
" />
<path d="M145.0000 117.0000
L147.0000 115.0000
" />
<path d="M124.5000 81.0000
L120.5000 79.5000
" />
<path d="M110.5000 43.0000
L117.0000 48.0000
" />
<path d="M171.5000 101.0000
L172.5000 98.0000
" />
<path d="M154.0000 128.0000
L153.5000 130.0000
" />
<path d="M170.5000 40.5000
L169.5000 45.0000
" />
<path d="M110.0000 48.0000
L108.0000 44.0000
" />
<path d="M149.5000 109.0000
L150.5000 109.0000
" />
<path d="M124.0000 125.5000
L125.5000 123.0000
" />
<path d="M133.5000 123.5000
L132.0000 122.5000
" />
<path d="M166.5000 44.5000
L170.0000 39.5000
" />
<path d="M126.5000 81.0000
L124.5000 81.0000
" />
<path d="M148.0000 85.5000
L152.0000 86.0000
" />
<path d="M132.5000 63.5000
L128.5000 60.5000
" />
<path d="M147.0000 85.5000
L146.5000 84.5000
" />
<path d="M158.0000 85.5000
L164.5000 80.5000
" />
<path d="M124.5000 130.0000
L124.0000 129.0000
" />
<path d="M163.5000 47.0000
L166.5000 44.5000
" />
<path d="M108.0000 39.0000
L110.5000 43.0000
" />
<path d="M167.5000 101.5000
L166.0000 110.0000
" />
<path d="M156.0000 59.0000
L158.5000 60.0000
" />
<path d="M128.0000 105.5000
L127.5000 103.5000
" />
<path d="M130.5000 111.0000
L131.5000 112.5000
" />
<path d="M149.5000 60.0000
L143.5000 66.5000
" />
<path d="M163.0000 70.5000
L162.5000 73.5000
" />
<path d="M107.0000 102.5000
L110.0000 108.5000
" />
<path d="M133.5000 109.5000
L130.0000 108.5000
" />
<path d="M141.5000 108.0000
L143.0000 109.0000
" />
<path d="M161.5000 88.5000
L158.0000 89.0000
" />
<path d="M167.5000 60.0000
L164.5000 55.5000
" />
<path d="M130.0000 122.0000
L130.5000 122.5000
" />
<path d="M126.5000 89.0000
L119.0000 90.0000
" />
<path d="M118.0000 61.0000
L121.5000 59.0000
" />
<path d="M143.5000 66.5000
L139.0000 74.0000
" />
<path d="M148.0000 123.5000
L148.0000 124.5000
" />
<path d="M110.5000 104.5000
L110.5000 99.0000
" />
<path d="M158.0000 105.5000
L157.0000 108.5000
" />
<path d="M127.0000 128.0000
L124.5000 130.0000
" />
<path d="M111.5000 58.0000
L109.5000 61.5000
" />
<path d="M147.5000 113.0000
L147.5000 111.5000
" />
<path d="M136.0000 108.0000
L133.5000 109.5000
" />
<path d="M130.5000 49.5000
L136.5000 48.5000
" />
<path d="M134.0000 118.0000
L131.5000 116.5000
" />
<path d="M110.5000 99.0000
L112.0000 94.0000
" />
<path d="M134.0000 128.5000
L134.0000 126.5000
" />
<path d="M162.5000 73.5000
L159.5000 77.5000
" />
<path d="M150.0000 127.0000
L149.0000 125.0000
" />
<path d="M148.0000 104.0000
L146.5000 105.5000
" />
<path d="M131.0000 129.0000
L132.5000 130.0000
" />
<path d="M109.0000 73.0000
L110.5000 77.0000
" />
<path d="M158.0000 103.0000
L158.0000 105.5000
" />
<path d="M121.0000 104.5000
L123.5000 107.0000
" />
<path d="M152.0000 129.0000
L150.0000 127.0000
" />
<path d="M122.5000 119.0000
L125.5000 121.5000
" />
<path d="M136.5000 48.5000
L142.5000 48.5000
" />
<path d="M114.8333 53.6667
L114.0000 54.5000
" />
<path d="M131.5000 112.5000
L133.5000 114.0000
" />
<path d="M139.5000 116.5000
L141.0000 117.0000
" />
<path d="M124.5000 85.5000
L131.5000 84.5000
" />
<path d="M147.5000 111.5000
L147.5000 110.5000
" />
<path d="M130.0000 112.0000
L130.5000 110.5000
" />
<path d="M152.0000 86.0000
L158.0000 85.5000
" />
<path d="M142.5000 117.5000
L144.0000 117.5000
" />
<path d="M136.5000 117.5000
L134.0000 118.0000
" />
<path d="M143.0000 109.0000
L145.5000 109.5000
" />
<path d="M145.0000 113.5000
L143.0000 115.0000
" />
<path d="M119.5000 115.5000
L122.5000 119.0000
" />
<path d="M147.0000 109.0000
L148.5000 108.0000
" />
<path d="M124.0000 110.5000
L122.0000 109.5000
" />
<path d="M115.0000 107.5000
L117.0000 112.0000
" />
<path d="M130.0000 122.0000
L129.0000 124.5000
" />
<path d="M127.5000 109.5000
L126.0000 110.5000
" />
<path d="M112.0000 111.0000
L110.5000 104.5000
" />
<path d="M144.5000 130.0000
L143.5000 128.5000
" />
<path d="M147.0000 115.0000
L147.5000 113.0000
" />
<path d="M152.5000 51.0000
L158.5000 49.0000
" />
<path d="M115.5000 64.5000
L118.0000 61.0000
" />
<path d="M163.5000 54.0000
L157.5000 57.0000
" />
<path d="M166.0000 94.5000
L167.5000 97.5000
" />
<path d="M147.0000 111.0000
L145.0000 113.5000
" />
<path d="M122.0000 109.5000
L120.5000 107.5000
" />
<path d="M143.0000 107.5000
L141.5000 108.0000
" />
<path d="M158.5000 60.0000
L162.5000 65.0000
" />
<circle cx="126.0000" cy="68.5000" r="5.5227" /> 
<path d="M151.0000 81.0000
L146.5000 80.0000
" />
<path d="M170.0000 82.0000
L167.5000 84.5000
" />
<path d="M133.0000 130.0000
L134.0000 128.5000
" />
<path d="M170.0000 39.5000
L170.5000 40.5000
" />
<path d="M142.5000 48.5000
L150.0000 50.0000
" />
<path d="M155.5000 80.5000
L151.0000 81.0000
" />
<path d="M120.0000 105.0000
L120.0000 103.0000
" />
<path d="M128.0000 101.5000
L130.5000 105.0000
" />
<path d="M110.5000 77.0000
L113.5000 81.0000
" />
<path d="M130.5000 110.5000
L130.5000 111.0000
" />
<path d="M121.5000 50.0000
L126.5000 51.5000
" />
<path d="M123.5000 127.5000
L124.0000 125.5000
" />
<path d="M158.5000 49.0000
L163.5000 47.0000
" />
<path d="M172.5000 98.0000
L173.0000 94.0000
" />
<path d="M150.0000 109.5000
L149.5000 109.0000
" />
<path d="M168.0000 49.0000
L163.5000 54.0000
" />
<path d="M166.0000 110.0000
L165.0000 113.0000
" />
<path d="M145.5000 109.5000
L147.0000 109.0000
" />
<path d="M150.0000 87.5000
L147.0000 85.5000
" />
<path d="M143.0000 115.0000
L139.5000 116.5000
" />
<path d="M146.5000 80.0000
L142.5000 77.5000
" />
<path d="M105.0000 94.0000
L107.0000 102.5000
" />
<path d="M141.0000 117.0000
L142.5000 117.5000
" />
<path d="M114.0000 54.5000
L111.5000 58.0000
" />
<path d="M144.0000 124.5000
L144.5000 123.5000
" />
<path d="M134.5000 125.0000
L138.0000 125.5000
" />
<path d="M110.0000 108.5000
L112.0000 111.0000
" />
<path d="M123.5000 107.0000
L126.5000 109.0000
" />
<path d="M135.0000 67.0000
L132.5000 63.5000
" />
<path d="M109.5000 61.5000
L109.0000 69.0000
" />
<path d="M156.0000 119.0000
L160.5000 112.0000
" />
<path d="M114.5000 70.0000
L115.5000 64.5000
" />
<path d="M150.5000 109.0000
L154.0000 107.0000
" />
<path d="M129.5000 126.5000
L131.0000 129.0000
" />
<path d="M130.5000 114.5000
L130.0000 112.0000
" />
<path d="M146.5000 105.5000
L143.0000 107.5000
" />
<path d="M171.5000 85.5000
L170.0000 82.0000
" />
<path d="M157.5000 57.0000
L149.5000 60.0000
" />
<path d="M127.5000 103.5000
L127.5000 101.0000
" />
<path d="M112.5000 96.5000
L113.5000 103.5000
" />
<path d="M120.0000 103.0000
L121.0000 104.5000
" />
<path d="M128.5000 60.5000
L124.0000 58.0000
" />
<path d="M169.5000 65.5000
L167.5000 60.0000
" />
<path d="M145.5000 130.0000
L144.5000 130.0000
" />
<path d="M154.5000 89.0000
L150.0000 87.5000
" />
<path d="M155.5000 110.0000
L153.5000 111.0000
" />
<path d="M150.5000 101.0000
L150.0000 101.5000
" />
<path d="M164.5000 87.0000
L161.5000 88.5000
" />
<path d="M154.0000 107.0000
L156.5000 104.5000
" />
<path d="M113.5000 81.0000
L119.5000 84.5000
" />
<path d="M121.5000 59.0000
L124.0000 58.0000
" />
<path d="M125.5000 123.0000
L127.0000 121.0000
" />
<path d="M139.0000 85.5000
L135.0000 77.0000
" />
</g>
<g style="fill:none; 
stroke:#000000; stroke-width:0.1200; stroke-opacity:1; 
stroke-linecap:round; stroke-linejoin:round;">
<path d="M155.2900 65.4550
L155.2900 68.5450
" />
<path d="M155.2900 65.4552 A2.9900 2.9900 0.0 0 0 149.7400 67.0000" />
<path d="M149.7400 67.0000 A2.9900 2.9900 0.0 0 0 155.2900 68.5448" />
<circle cx="152.7300" cy="67.0000" r="2.5000" /> 
<path d="M129.8300 65.4550
L129.8300 68.5450
" />
<path d="M129.8300 65.4552 A2.9900 2.9900 0.0 0 0 124.2800 67.0000" />
<path d="M124.2800 67.0000 A2.9900 2.9900 0.0 0 0 129.8300 68.5448" />
<circle cx="127.2700" cy="67.0000" r="2.5000" /> 
</g> 
</svg>
