<?xml version="1.0" standalone="no"?>
 <!DOCTYPE svg PUBLIC "-//W3C//DTD SVG 1.1//EN" 
 "http://www.w3.org/Graphics/SVG/1.1/DTD/svg11.dtd"> 
<svg
  xmlns:svg="http://www.w3.org/2000/svg"
  xmlns="http://www.w3.org/2000/svg"
  xmlns:xlink="http://www.w3.org/1999/xlink"
  version="1.1"
  width="297.0022mm" height="210.0072mm" viewBox="0.0000 0.0000 297.0022 210.0072">
<title>SVG Image created as solder_Hackclub-F_Silkscreen.svg date 2025/05/24 18:36:00 </title>
  <desc>Image generated by PCBNEW </desc>
<g style="fill:#000000; fill-opacity:1.0000;stroke:#000000; stroke-opacity:1.0000;
stroke-linecap:round; stroke-linejoin:round;"
 transform="translate(0 0) scale(1 1)">
</g>
<g style="fill:none; 
stroke:#000000; stroke-width:0.1500; stroke-opacity:1; 
stroke-linecap:round; stroke-linejoin:round;">
<g transform="rotate(-90.000000 155.1300 78.5000)">
<text x="155.1300" y="79.0000"
textLength="2.2024" font-size="1.3333" lengthAdjust="spacingAndGlyphs"
text-anchor="middle" opacity="0" stroke-opacity="0">R4</text>
</g>
<g class="stroked-text"><desc>R4</desc>
<path d="M155.5848 78.6667
L155.1086 79.0000
" />
<path d="M155.5848 79.2381
L154.5848 79.2381
" />
<path d="M154.5848 79.2381
L154.5848 78.8571
" />
<path d="M154.5848 78.8571
L154.6324 78.7619
" />
<path d="M154.6324 78.7619
L154.6801 78.7143
" />
<path d="M154.6801 78.7143
L154.7753 78.6667
" />
<path d="M154.7753 78.6667
L154.9182 78.6667
" />
<path d="M154.9182 78.6667
L155.0134 78.7143
" />
<path d="M155.0134 78.7143
L155.0610 78.7619
" />
<path d="M155.0610 78.7619
L155.1086 78.8571
" />
<path d="M155.1086 78.8571
L155.1086 79.2381
" />
<path d="M154.9182 77.8095
L155.5848 77.8095
" />
<path d="M154.5372 78.0476
L155.2515 78.2857
" />
<path d="M155.2515 78.2857
L155.2515 77.6667
" />
</g><text x="142.3100" y="121.3700"
textLength="2.2024" font-size="1.3333" lengthAdjust="spacingAndGlyphs"
text-anchor="middle" opacity="0" stroke-opacity="0">R9</text>
<g class="stroked-text"><desc>R9</desc>
<path d="M142.1433 121.3248
L141.8100 120.8486
" />
<path d="M141.5719 121.3248
L141.5719 120.3248
" />
<path d="M141.5719 120.3248
L141.9529 120.3248
" />
<path d="M141.9529 120.3248
L142.0481 120.3724
" />
<path d="M142.0481 120.3724
L142.0957 120.4201
" />
<path d="M142.0957 120.4201
L142.1433 120.5153
" />
<path d="M142.1433 120.5153
L142.1433 120.6582
" />
<path d="M142.1433 120.6582
L142.0957 120.7534
" />
<path d="M142.0957 120.7534
L142.0481 120.8010
" />
<path d="M142.0481 120.8010
L141.9529 120.8486
" />
<path d="M141.9529 120.8486
L141.5719 120.8486
" />
<path d="M142.6195 121.3248
L142.8100 121.3248
" />
<path d="M142.8100 121.3248
L142.9052 121.2772
" />
<path d="M142.9052 121.2772
L142.9529 121.2296
" />
<path d="M142.9529 121.2296
L143.0481 121.0867
" />
<path d="M143.0481 121.0867
L143.0957 120.8962
" />
<path d="M143.0957 120.8962
L143.0957 120.5153
" />
<path d="M143.0957 120.5153
L143.0481 120.4201
" />
<path d="M143.0481 120.4201
L143.0005 120.3724
" />
<path d="M143.0005 120.3724
L142.9052 120.3248
" />
<path d="M142.9052 120.3248
L142.7148 120.3248
" />
<path d="M142.7148 120.3248
L142.6195 120.3724
" />
<path d="M142.6195 120.3724
L142.5719 120.4201
" />
<path d="M142.5719 120.4201
L142.5243 120.5153
" />
<path d="M142.5243 120.5153
L142.5243 120.7534
" />
<path d="M142.5243 120.7534
L142.5719 120.8486
" />
<path d="M142.5719 120.8486
L142.6195 120.8962
" />
<path d="M142.6195 120.8962
L142.7148 120.9439
" />
<path d="M142.7148 120.9439
L142.9052 120.9439
" />
<path d="M142.9052 120.9439
L143.0005 120.8962
" />
<path d="M143.0005 120.8962
L143.0481 120.8486
" />
<path d="M143.0481 120.8486
L143.0957 120.7534
" />
</g><text x="138.5973" y="84.7500"
textLength="2.2024" font-size="1.3333" lengthAdjust="spacingAndGlyphs"
text-anchor="middle" opacity="0" stroke-opacity="0">C2</text>
<g class="stroked-text"><desc>C2</desc>
<path d="M138.4307 84.6096
L138.3831 84.6572
" />
<path d="M138.3831 84.6572
L138.2402 84.7048
" />
<path d="M138.2402 84.7048
L138.1450 84.7048
" />
<path d="M138.1450 84.7048
L138.0021 84.6572
" />
<path d="M138.0021 84.6572
L137.9069 84.5620
" />
<path d="M137.9069 84.5620
L137.8593 84.4667
" />
<path d="M137.8593 84.4667
L137.8116 84.2762
" />
<path d="M137.8116 84.2762
L137.8116 84.1334
" />
<path d="M137.8116 84.1334
L137.8593 83.9429
" />
<path d="M137.8593 83.9429
L137.9069 83.8477
" />
<path d="M137.9069 83.8477
L138.0021 83.7524
" />
<path d="M138.0021 83.7524
L138.1450 83.7048
" />
<path d="M138.1450 83.7048
L138.2402 83.7048
" />
<path d="M138.2402 83.7048
L138.3831 83.7524
" />
<path d="M138.3831 83.7524
L138.4307 83.8001
" />
<path d="M138.8116 83.8001
L138.8593 83.7524
" />
<path d="M138.8593 83.7524
L138.9545 83.7048
" />
<path d="M138.9545 83.7048
L139.1926 83.7048
" />
<path d="M139.1926 83.7048
L139.2878 83.7524
" />
<path d="M139.2878 83.7524
L139.3354 83.8001
" />
<path d="M139.3354 83.8001
L139.3831 83.8953
" />
<path d="M139.3831 83.8953
L139.3831 83.9905
" />
<path d="M139.3831 83.9905
L139.3354 84.1334
" />
<path d="M139.3354 84.1334
L138.7640 84.7048
" />
<path d="M138.7640 84.7048
L139.3831 84.7048
" />
</g><text x="130.0000" y="77.9700"
textLength="2.2500" font-size="1.3333" lengthAdjust="spacingAndGlyphs"
text-anchor="middle" opacity="0" stroke-opacity="0">Q2</text>
<g class="stroked-text"><desc>Q2</desc>
<path d="M129.9048 78.0201
L129.8095 77.9724
" />
<path d="M129.8095 77.9724
L129.7143 77.8772
" />
<path d="M129.7143 77.8772
L129.5714 77.7343
" />
<path d="M129.5714 77.7343
L129.4762 77.6867
" />
<path d="M129.4762 77.6867
L129.3810 77.6867
" />
<path d="M129.4286 77.9248
L129.3333 77.8772
" />
<path d="M129.3333 77.8772
L129.2381 77.7820
" />
<path d="M129.2381 77.7820
L129.1905 77.5915
" />
<path d="M129.1905 77.5915
L129.1905 77.2582
" />
<path d="M129.1905 77.2582
L129.2381 77.0677
" />
<path d="M129.2381 77.0677
L129.3333 76.9724
" />
<path d="M129.3333 76.9724
L129.4286 76.9248
" />
<path d="M129.4286 76.9248
L129.6190 76.9248
" />
<path d="M129.6190 76.9248
L129.7143 76.9724
" />
<path d="M129.7143 76.9724
L129.8095 77.0677
" />
<path d="M129.8095 77.0677
L129.8571 77.2582
" />
<path d="M129.8571 77.2582
L129.8571 77.5915
" />
<path d="M129.8571 77.5915
L129.8095 77.7820
" />
<path d="M129.8095 77.7820
L129.7143 77.8772
" />
<path d="M129.7143 77.8772
L129.6190 77.9248
" />
<path d="M129.6190 77.9248
L129.4286 77.9248
" />
<path d="M130.2381 77.0201
L130.2857 76.9724
" />
<path d="M130.2857 76.9724
L130.3810 76.9248
" />
<path d="M130.3810 76.9248
L130.6190 76.9248
" />
<path d="M130.6190 76.9248
L130.7143 76.9724
" />
<path d="M130.7143 76.9724
L130.7619 77.0201
" />
<path d="M130.7619 77.0201
L130.8095 77.1153
" />
<path d="M130.8095 77.1153
L130.8095 77.2105
" />
<path d="M130.8095 77.2105
L130.7619 77.3534
" />
<path d="M130.7619 77.3534
L130.1905 77.9248
" />
<path d="M130.1905 77.9248
L130.8095 77.9248
" />
</g><text x="127.5000" y="73.1300"
textLength="2.2024" font-size="1.3333" lengthAdjust="spacingAndGlyphs"
text-anchor="middle" opacity="0" stroke-opacity="0">R6</text>
<g class="stroked-text"><desc>R6</desc>
<path d="M127.3333 73.0848
L127.0000 72.6086
" />
<path d="M126.7619 73.0848
L126.7619 72.0848
" />
<path d="M126.7619 72.0848
L127.1429 72.0848
" />
<path d="M127.1429 72.0848
L127.2381 72.1324
" />
<path d="M127.2381 72.1324
L127.2857 72.1801
" />
<path d="M127.2857 72.1801
L127.3333 72.2753
" />
<path d="M127.3333 72.2753
L127.3333 72.4182
" />
<path d="M127.3333 72.4182
L127.2857 72.5134
" />
<path d="M127.2857 72.5134
L127.2381 72.5610
" />
<path d="M127.2381 72.5610
L127.1429 72.6086
" />
<path d="M127.1429 72.6086
L126.7619 72.6086
" />
<path d="M128.1905 72.0848
L128.0000 72.0848
" />
<path d="M128.0000 72.0848
L127.9048 72.1324
" />
<path d="M127.9048 72.1324
L127.8571 72.1801
" />
<path d="M127.8571 72.1801
L127.7619 72.3229
" />
<path d="M127.7619 72.3229
L127.7143 72.5134
" />
<path d="M127.7143 72.5134
L127.7143 72.8943
" />
<path d="M127.7143 72.8943
L127.7619 72.9896
" />
<path d="M127.7619 72.9896
L127.8095 73.0372
" />
<path d="M127.8095 73.0372
L127.9048 73.0848
" />
<path d="M127.9048 73.0848
L128.0952 73.0848
" />
<path d="M128.0952 73.0848
L128.1905 73.0372
" />
<path d="M128.1905 73.0372
L128.2381 72.9896
" />
<path d="M128.2381 72.9896
L128.2857 72.8943
" />
<path d="M128.2857 72.8943
L128.2857 72.6562
" />
<path d="M128.2857 72.6562
L128.2381 72.5610
" />
<path d="M128.2381 72.5610
L128.1905 72.5134
" />
<path d="M128.1905 72.5134
L128.0952 72.4658
" />
<path d="M128.0952 72.4658
L127.9048 72.4658
" />
<path d="M127.9048 72.4658
L127.8095 72.5134
" />
<path d="M127.8095 72.5134
L127.7619 72.5610
" />
<path d="M127.7619 72.5610
L127.7143 72.6562
" />
</g><text x="138.5000" y="73.2500"
textLength="2.2024" font-size="1.3333" lengthAdjust="spacingAndGlyphs"
text-anchor="middle" opacity="0" stroke-opacity="0">C1</text>
<g class="stroked-text"><desc>C1</desc>
<path d="M138.3333 73.1096
L138.2857 73.1572
" />
<path d="M138.2857 73.1572
L138.1429 73.2048
" />
<path d="M138.1429 73.2048
L138.0476 73.2048
" />
<path d="M138.0476 73.2048
L137.9048 73.1572
" />
<path d="M137.9048 73.1572
L137.8095 73.0620
" />
<path d="M137.8095 73.0620
L137.7619 72.9667
" />
<path d="M137.7619 72.9667
L137.7143 72.7762
" />
<path d="M137.7143 72.7762
L137.7143 72.6334
" />
<path d="M137.7143 72.6334
L137.7619 72.4429
" />
<path d="M137.7619 72.4429
L137.8095 72.3477
" />
<path d="M137.8095 72.3477
L137.9048 72.2524
" />
<path d="M137.9048 72.2524
L138.0476 72.2048
" />
<path d="M138.0476 72.2048
L138.1429 72.2048
" />
<path d="M138.1429 72.2048
L138.2857 72.2524
" />
<path d="M138.2857 72.2524
L138.3333 72.3001
" />
<path d="M139.2857 73.2048
L138.7143 73.2048
" />
<path d="M139.0000 73.2048
L139.0000 72.2048
" />
<path d="M139.0000 72.2048
L138.9048 72.3477
" />
<path d="M138.9048 72.3477
L138.8095 72.4429
" />
<path d="M138.8095 72.4429
L138.7143 72.4905
" />
</g><text x="168.5000" y="86.4700"
textLength="2.2500" font-size="1.3333" lengthAdjust="spacingAndGlyphs"
text-anchor="middle" opacity="0" stroke-opacity="0">Q1</text>
<g class="stroked-text"><desc>Q1</desc>
<path d="M168.4048 86.5201
L168.3095 86.4724
" />
<path d="M168.3095 86.4724
L168.2143 86.3772
" />
<path d="M168.2143 86.3772
L168.0714 86.2343
" />
<path d="M168.0714 86.2343
L167.9762 86.1867
" />
<path d="M167.9762 86.1867
L167.8810 86.1867
" />
<path d="M167.9286 86.4248
L167.8333 86.3772
" />
<path d="M167.8333 86.3772
L167.7381 86.2820
" />
<path d="M167.7381 86.2820
L167.6905 86.0915
" />
<path d="M167.6905 86.0915
L167.6905 85.7582
" />
<path d="M167.6905 85.7582
L167.7381 85.5677
" />
<path d="M167.7381 85.5677
L167.8333 85.4724
" />
<path d="M167.8333 85.4724
L167.9286 85.4248
" />
<path d="M167.9286 85.4248
L168.1190 85.4248
" />
<path d="M168.1190 85.4248
L168.2143 85.4724
" />
<path d="M168.2143 85.4724
L168.3095 85.5677
" />
<path d="M168.3095 85.5677
L168.3571 85.7582
" />
<path d="M168.3571 85.7582
L168.3571 86.0915
" />
<path d="M168.3571 86.0915
L168.3095 86.2820
" />
<path d="M168.3095 86.2820
L168.2143 86.3772
" />
<path d="M168.2143 86.3772
L168.1190 86.4248
" />
<path d="M168.1190 86.4248
L167.9286 86.4248
" />
<path d="M169.3095 86.4248
L168.7381 86.4248
" />
<path d="M169.0238 86.4248
L169.0238 85.4248
" />
<path d="M169.0238 85.4248
L168.9286 85.5677
" />
<path d="M168.9286 85.5677
L168.8333 85.6629
" />
<path d="M168.8333 85.6629
L168.7381 85.7105
" />
</g><g transform="rotate(-90.000000 160.1300 75.5000)">
<text x="160.1300" y="76.0000"
textLength="2.2024" font-size="1.3333" lengthAdjust="spacingAndGlyphs"
text-anchor="middle" opacity="0" stroke-opacity="0">R5</text>
</g>
<g class="stroked-text"><desc>R5</desc>
<path d="M160.5848 75.6667
L160.1086 76.0000
" />
<path d="M160.5848 76.2381
L159.5848 76.2381
" />
<path d="M159.5848 76.2381
L159.5848 75.8571
" />
<path d="M159.5848 75.8571
L159.6324 75.7619
" />
<path d="M159.6324 75.7619
L159.6801 75.7143
" />
<path d="M159.6801 75.7143
L159.7753 75.6667
" />
<path d="M159.7753 75.6667
L159.9182 75.6667
" />
<path d="M159.9182 75.6667
L160.0134 75.7143
" />
<path d="M160.0134 75.7143
L160.0610 75.7619
" />
<path d="M160.0610 75.7619
L160.1086 75.8571
" />
<path d="M160.1086 75.8571
L160.1086 76.2381
" />
<path d="M159.5848 74.7619
L159.5848 75.2381
" />
<path d="M159.5848 75.2381
L160.0610 75.2857
" />
<path d="M160.0610 75.2857
L160.0134 75.2381
" />
<path d="M160.0134 75.2381
L159.9658 75.1429
" />
<path d="M159.9658 75.1429
L159.9658 74.9048
" />
<path d="M159.9658 74.9048
L160.0134 74.8095
" />
<path d="M160.0134 74.8095
L160.0610 74.7619
" />
<path d="M160.0610 74.7619
L160.1562 74.7143
" />
<path d="M160.1562 74.7143
L160.3943 74.7143
" />
<path d="M160.3943 74.7143
L160.4896 74.7619
" />
<path d="M160.4896 74.7619
L160.5372 74.8095
" />
<path d="M160.5372 74.8095
L160.5848 74.9048
" />
<path d="M160.5848 74.9048
L160.5848 75.1429
" />
<path d="M160.5848 75.1429
L160.5372 75.2381
" />
<path d="M160.5372 75.2381
L160.4896 75.2857
" />
</g><text x="153.5000" y="70.1300"
textLength="3.1548" font-size="1.3333" lengthAdjust="spacingAndGlyphs"
text-anchor="middle" opacity="0" stroke-opacity="0">R12</text>
<g class="stroked-text"><desc>R12</desc>
<path d="M152.8571 70.0848
L152.5238 69.6086
" />
<path d="M152.2857 70.0848
L152.2857 69.0848
" />
<path d="M152.2857 69.0848
L152.6667 69.0848
" />
<path d="M152.6667 69.0848
L152.7619 69.1324
" />
<path d="M152.7619 69.1324
L152.8095 69.1801
" />
<path d="M152.8095 69.1801
L152.8571 69.2753
" />
<path d="M152.8571 69.2753
L152.8571 69.4182
" />
<path d="M152.8571 69.4182
L152.8095 69.5134
" />
<path d="M152.8095 69.5134
L152.7619 69.5610
" />
<path d="M152.7619 69.5610
L152.6667 69.6086
" />
<path d="M152.6667 69.6086
L152.2857 69.6086
" />
<path d="M153.8095 70.0848
L153.2381 70.0848
" />
<path d="M153.5238 70.0848
L153.5238 69.0848
" />
<path d="M153.5238 69.0848
L153.4286 69.2277
" />
<path d="M153.4286 69.2277
L153.3333 69.3229
" />
<path d="M153.3333 69.3229
L153.2381 69.3705
" />
<path d="M154.1905 69.1801
L154.2381 69.1324
" />
<path d="M154.2381 69.1324
L154.3333 69.0848
" />
<path d="M154.3333 69.0848
L154.5714 69.0848
" />
<path d="M154.5714 69.0848
L154.6667 69.1324
" />
<path d="M154.6667 69.1324
L154.7143 69.1801
" />
<path d="M154.7143 69.1801
L154.7619 69.2753
" />
<path d="M154.7619 69.2753
L154.7619 69.3705
" />
<path d="M154.7619 69.3705
L154.7143 69.5134
" />
<path d="M154.7143 69.5134
L154.1429 70.0848
" />
<path d="M154.1429 70.0848
L154.7619 70.0848
" />
</g><text x="139.1900" y="111.6300"
textLength="2.2024" font-size="1.3333" lengthAdjust="spacingAndGlyphs"
text-anchor="middle" opacity="0" stroke-opacity="0">R8</text>
<g class="stroked-text"><desc>R8</desc>
<path d="M139.0233 111.5848
L138.6900 111.1086
" />
<path d="M138.4519 111.5848
L138.4519 110.5848
" />
<path d="M138.4519 110.5848
L138.8329 110.5848
" />
<path d="M138.8329 110.5848
L138.9281 110.6324
" />
<path d="M138.9281 110.6324
L138.9757 110.6801
" />
<path d="M138.9757 110.6801
L139.0233 110.7753
" />
<path d="M139.0233 110.7753
L139.0233 110.9182
" />
<path d="M139.0233 110.9182
L138.9757 111.0134
" />
<path d="M138.9757 111.0134
L138.9281 111.0610
" />
<path d="M138.9281 111.0610
L138.8329 111.1086
" />
<path d="M138.8329 111.1086
L138.4519 111.1086
" />
<path d="M139.5948 111.0134
L139.4995 110.9658
" />
<path d="M139.4995 110.9658
L139.4519 110.9182
" />
<path d="M139.4519 110.9182
L139.4043 110.8229
" />
<path d="M139.4043 110.8229
L139.4043 110.7753
" />
<path d="M139.4043 110.7753
L139.4519 110.6801
" />
<path d="M139.4519 110.6801
L139.4995 110.6324
" />
<path d="M139.4995 110.6324
L139.5948 110.5848
" />
<path d="M139.5948 110.5848
L139.7852 110.5848
" />
<path d="M139.7852 110.5848
L139.8805 110.6324
" />
<path d="M139.8805 110.6324
L139.9281 110.6801
" />
<path d="M139.9281 110.6801
L139.9757 110.7753
" />
<path d="M139.9757 110.7753
L139.9757 110.8229
" />
<path d="M139.9757 110.8229
L139.9281 110.9182
" />
<path d="M139.9281 110.9182
L139.8805 110.9658
" />
<path d="M139.8805 110.9658
L139.7852 111.0134
" />
<path d="M139.7852 111.0134
L139.5948 111.0134
" />
<path d="M139.5948 111.0134
L139.4995 111.0610
" />
<path d="M139.4995 111.0610
L139.4519 111.1086
" />
<path d="M139.4519 111.1086
L139.4043 111.2039
" />
<path d="M139.4043 111.2039
L139.4043 111.3943
" />
<path d="M139.4043 111.3943
L139.4519 111.4896
" />
<path d="M139.4519 111.4896
L139.4995 111.5372
" />
<path d="M139.4995 111.5372
L139.5948 111.5848
" />
<path d="M139.5948 111.5848
L139.7852 111.5848
" />
<path d="M139.7852 111.5848
L139.8805 111.5372
" />
<path d="M139.8805 111.5372
L139.9281 111.4896
" />
<path d="M139.9281 111.4896
L139.9757 111.3943
" />
<path d="M139.9757 111.3943
L139.9757 111.2039
" />
<path d="M139.9757 111.2039
L139.9281 111.1086
" />
<path d="M139.9281 111.1086
L139.8805 111.0610
" />
<path d="M139.8805 111.0610
L139.7852 111.0134
" />
</g><text x="121.3100" y="83.3700"
textLength="2.2024" font-size="1.3333" lengthAdjust="spacingAndGlyphs"
text-anchor="middle" opacity="0" stroke-opacity="0">R7</text>
<g class="stroked-text"><desc>R7</desc>
<path d="M121.1433 83.3248
L120.8100 82.8486
" />
<path d="M120.5719 83.3248
L120.5719 82.3248
" />
<path d="M120.5719 82.3248
L120.9529 82.3248
" />
<path d="M120.9529 82.3248
L121.0481 82.3724
" />
<path d="M121.0481 82.3724
L121.0957 82.4201
" />
<path d="M121.0957 82.4201
L121.1433 82.5153
" />
<path d="M121.1433 82.5153
L121.1433 82.6582
" />
<path d="M121.1433 82.6582
L121.0957 82.7534
" />
<path d="M121.0957 82.7534
L121.0481 82.8010
" />
<path d="M121.0481 82.8010
L120.9529 82.8486
" />
<path d="M120.9529 82.8486
L120.5719 82.8486
" />
<path d="M121.4767 82.3248
L122.1433 82.3248
" />
<path d="M122.1433 82.3248
L121.7148 83.3248
" />
</g><text x="128.6900" y="114.1300"
textLength="2.2024" font-size="1.3333" lengthAdjust="spacingAndGlyphs"
text-anchor="middle" opacity="0" stroke-opacity="0">R1</text>
<g class="stroked-text"><desc>R1</desc>
<path d="M128.5233 114.0848
L128.1900 113.6086
" />
<path d="M127.9519 114.0848
L127.9519 113.0848
" />
<path d="M127.9519 113.0848
L128.3329 113.0848
" />
<path d="M128.3329 113.0848
L128.4281 113.1324
" />
<path d="M128.4281 113.1324
L128.4757 113.1801
" />
<path d="M128.4757 113.1801
L128.5233 113.2753
" />
<path d="M128.5233 113.2753
L128.5233 113.4182
" />
<path d="M128.5233 113.4182
L128.4757 113.5134
" />
<path d="M128.4757 113.5134
L128.4281 113.5610
" />
<path d="M128.4281 113.5610
L128.3329 113.6086
" />
<path d="M128.3329 113.6086
L127.9519 113.6086
" />
<path d="M129.4757 114.0848
L128.9043 114.0848
" />
<path d="M129.1900 114.0848
L129.1900 113.0848
" />
<path d="M129.1900 113.0848
L129.0948 113.2277
" />
<path d="M129.0948 113.2277
L128.9995 113.3229
" />
<path d="M128.9995 113.3229
L128.9043 113.3705
" />
</g><text x="147.6900" y="79.6300"
textLength="2.2024" font-size="1.3333" lengthAdjust="spacingAndGlyphs"
text-anchor="middle" opacity="0" stroke-opacity="0">R2</text>
<g class="stroked-text"><desc>R2</desc>
<path d="M147.5233 79.5848
L147.1900 79.1086
" />
<path d="M146.9519 79.5848
L146.9519 78.5848
" />
<path d="M146.9519 78.5848
L147.3329 78.5848
" />
<path d="M147.3329 78.5848
L147.4281 78.6324
" />
<path d="M147.4281 78.6324
L147.4757 78.6801
" />
<path d="M147.4757 78.6801
L147.5233 78.7753
" />
<path d="M147.5233 78.7753
L147.5233 78.9182
" />
<path d="M147.5233 78.9182
L147.4757 79.0134
" />
<path d="M147.4757 79.0134
L147.4281 79.0610
" />
<path d="M147.4281 79.0610
L147.3329 79.1086
" />
<path d="M147.3329 79.1086
L146.9519 79.1086
" />
<path d="M147.9043 78.6801
L147.9519 78.6324
" />
<path d="M147.9519 78.6324
L148.0471 78.5848
" />
<path d="M148.0471 78.5848
L148.2852 78.5848
" />
<path d="M148.2852 78.5848
L148.3805 78.6324
" />
<path d="M148.3805 78.6324
L148.4281 78.6801
" />
<path d="M148.4281 78.6801
L148.4757 78.7753
" />
<path d="M148.4757 78.7753
L148.4757 78.8705
" />
<path d="M148.4757 78.8705
L148.4281 79.0134
" />
<path d="M148.4281 79.0134
L147.8567 79.5848
" />
<path d="M147.8567 79.5848
L148.4757 79.5848
" />
</g><text x="150.6900" y="75.1300"
textLength="2.2024" font-size="1.3333" lengthAdjust="spacingAndGlyphs"
text-anchor="middle" opacity="0" stroke-opacity="0">R3</text>
<g class="stroked-text"><desc>R3</desc>
<path d="M150.5233 75.0848
L150.1900 74.6086
" />
<path d="M149.9519 75.0848
L149.9519 74.0848
" />
<path d="M149.9519 74.0848
L150.3329 74.0848
" />
<path d="M150.3329 74.0848
L150.4281 74.1324
" />
<path d="M150.4281 74.1324
L150.4757 74.1801
" />
<path d="M150.4757 74.1801
L150.5233 74.2753
" />
<path d="M150.5233 74.2753
L150.5233 74.4182
" />
<path d="M150.5233 74.4182
L150.4757 74.5134
" />
<path d="M150.4757 74.5134
L150.4281 74.5610
" />
<path d="M150.4281 74.5610
L150.3329 74.6086
" />
<path d="M150.3329 74.6086
L149.9519 74.6086
" />
<path d="M150.8567 74.0848
L151.4757 74.0848
" />
<path d="M151.4757 74.0848
L151.1424 74.4658
" />
<path d="M151.1424 74.4658
L151.2852 74.4658
" />
<path d="M151.2852 74.4658
L151.3805 74.5134
" />
<path d="M151.3805 74.5134
L151.4281 74.5610
" />
<path d="M151.4281 74.5610
L151.4757 74.6562
" />
<path d="M151.4757 74.6562
L151.4757 74.8943
" />
<path d="M151.4757 74.8943
L151.4281 74.9896
" />
<path d="M151.4281 74.9896
L151.3805 75.0372
" />
<path d="M151.3805 75.0372
L151.2852 75.0848
" />
<path d="M151.2852 75.0848
L150.9995 75.0848
" />
<path d="M150.9995 75.0848
L150.9043 75.0372
" />
<path d="M150.9043 75.0372
L150.8567 74.9896
" />
</g><g transform="rotate(-90.000000 139.5000 101.0000)">
<text x="139.5000" y="101.5000"
textLength="2.9643" font-size="1.3333" lengthAdjust="spacingAndGlyphs"
text-anchor="middle" opacity="0" stroke-opacity="0">BT1</text>
</g>
<g class="stroked-text"><desc>BT1</desc>
<path d="M139.4310 101.7857
L139.4786 101.6429
" />
<path d="M139.4786 101.6429
L139.5262 101.5952
" />
<path d="M139.5262 101.5952
L139.6215 101.5476
" />
<path d="M139.6215 101.5476
L139.7643 101.5476
" />
<path d="M139.7643 101.5476
L139.8596 101.5952
" />
<path d="M139.8596 101.5952
L139.9072 101.6429
" />
<path d="M139.9072 101.6429
L139.9548 101.7381
" />
<path d="M139.9548 101.7381
L139.9548 102.1190
" />
<path d="M139.9548 102.1190
L138.9548 102.1190
" />
<path d="M138.9548 102.1190
L138.9548 101.7857
" />
<path d="M138.9548 101.7857
L139.0024 101.6905
" />
<path d="M139.0024 101.6905
L139.0501 101.6429
" />
<path d="M139.0501 101.6429
L139.1453 101.5952
" />
<path d="M139.1453 101.5952
L139.2405 101.5952
" />
<path d="M139.2405 101.5952
L139.3358 101.6429
" />
<path d="M139.3358 101.6429
L139.3834 101.6905
" />
<path d="M139.3834 101.6905
L139.4310 101.7857
" />
<path d="M139.4310 101.7857
L139.4310 102.1190
" />
<path d="M138.9548 101.2619
L138.9548 100.6905
" />
<path d="M139.9548 100.9762
L138.9548 100.9762
" />
<path d="M139.9548 99.8333
L139.9548 100.4048
" />
<path d="M139.9548 100.1190
L138.9548 100.1190
" />
<path d="M138.9548 100.1190
L139.0977 100.2143
" />
<path d="M139.0977 100.2143
L139.1929 100.3095
" />
<path d="M139.1929 100.3095
L139.2405 100.4048
" />
</g><g transform="rotate(-90.000000 115.0000 101.0000)">
<text x="115.0000" y="101.5000"
textLength="2.9643" font-size="1.3333" lengthAdjust="spacingAndGlyphs"
text-anchor="middle" opacity="0" stroke-opacity="0">BT2</text>
</g>
<g class="stroked-text"><desc>BT2</desc>
<path d="M114.9310 101.7857
L114.9786 101.6429
" />
<path d="M114.9786 101.6429
L115.0262 101.5952
" />
<path d="M115.0262 101.5952
L115.1215 101.5476
" />
<path d="M115.1215 101.5476
L115.2643 101.5476
" />
<path d="M115.2643 101.5476
L115.3596 101.5952
" />
<path d="M115.3596 101.5952
L115.4072 101.6429
" />
<path d="M115.4072 101.6429
L115.4548 101.7381
" />
<path d="M115.4548 101.7381
L115.4548 102.1190
" />
<path d="M115.4548 102.1190
L114.4548 102.1190
" />
<path d="M114.4548 102.1190
L114.4548 101.7857
" />
<path d="M114.4548 101.7857
L114.5024 101.6905
" />
<path d="M114.5024 101.6905
L114.5501 101.6429
" />
<path d="M114.5501 101.6429
L114.6453 101.5952
" />
<path d="M114.6453 101.5952
L114.7405 101.5952
" />
<path d="M114.7405 101.5952
L114.8358 101.6429
" />
<path d="M114.8358 101.6429
L114.8834 101.6905
" />
<path d="M114.8834 101.6905
L114.9310 101.7857
" />
<path d="M114.9310 101.7857
L114.9310 102.1190
" />
<path d="M114.4548 101.2619
L114.4548 100.6905
" />
<path d="M115.4548 100.9762
L114.4548 100.9762
" />
<path d="M114.5501 100.4048
L114.5024 100.3571
" />
<path d="M114.5024 100.3571
L114.4548 100.2619
" />
<path d="M114.4548 100.2619
L114.4548 100.0238
" />
<path d="M114.4548 100.0238
L114.5024 99.9286
" />
<path d="M114.5024 99.9286
L114.5501 99.8810
" />
<path d="M114.5501 99.8810
L114.6453 99.8333
" />
<path d="M114.6453 99.8333
L114.7405 99.8333
" />
<path d="M114.7405 99.8333
L114.8834 99.8810
" />
<path d="M114.8834 99.8810
L115.4548 100.4524
" />
<path d="M115.4548 100.4524
L115.4548 99.8333
" />
</g><text x="117.0000" y="78.3700"
textLength="3.1548" font-size="1.3333" lengthAdjust="spacingAndGlyphs"
text-anchor="middle" opacity="0" stroke-opacity="0">R10</text>
<g class="stroked-text"><desc>R10</desc>
<path d="M116.3571 78.3248
L116.0238 77.8486
" />
<path d="M115.7857 78.3248
L115.7857 77.3248
" />
<path d="M115.7857 77.3248
L116.1667 77.3248
" />
<path d="M116.1667 77.3248
L116.2619 77.3724
" />
<path d="M116.2619 77.3724
L116.3095 77.4201
" />
<path d="M116.3095 77.4201
L116.3571 77.5153
" />
<path d="M116.3571 77.5153
L116.3571 77.6582
" />
<path d="M116.3571 77.6582
L116.3095 77.7534
" />
<path d="M116.3095 77.7534
L116.2619 77.8010
" />
<path d="M116.2619 77.8010
L116.1667 77.8486
" />
<path d="M116.1667 77.8486
L115.7857 77.8486
" />
<path d="M117.3095 78.3248
L116.7381 78.3248
" />
<path d="M117.0238 78.3248
L117.0238 77.3248
" />
<path d="M117.0238 77.3248
L116.9286 77.4677
" />
<path d="M116.9286 77.4677
L116.8333 77.5629
" />
<path d="M116.8333 77.5629
L116.7381 77.6105
" />
<path d="M117.9286 77.3248
L118.0238 77.3248
" />
<path d="M118.0238 77.3248
L118.1190 77.3724
" />
<path d="M118.1190 77.3724
L118.1667 77.4201
" />
<path d="M118.1667 77.4201
L118.2143 77.5153
" />
<path d="M118.2143 77.5153
L118.2619 77.7058
" />
<path d="M118.2619 77.7058
L118.2619 77.9439
" />
<path d="M118.2619 77.9439
L118.2143 78.1343
" />
<path d="M118.2143 78.1343
L118.1667 78.2296
" />
<path d="M118.1667 78.2296
L118.1190 78.2772
" />
<path d="M118.1190 78.2772
L118.0238 78.3248
" />
<path d="M118.0238 78.3248
L117.9286 78.3248
" />
<path d="M117.9286 78.3248
L117.8333 78.2772
" />
<path d="M117.8333 78.2772
L117.7857 78.2296
" />
<path d="M117.7857 78.2296
L117.7381 78.1343
" />
<path d="M117.7381 78.1343
L117.6905 77.9439
" />
<path d="M117.6905 77.9439
L117.6905 77.7058
" />
<path d="M117.6905 77.7058
L117.7381 77.5153
" />
<path d="M117.7381 77.5153
L117.7857 77.4201
" />
<path d="M117.7857 77.4201
L117.8333 77.3724
" />
<path d="M117.8333 77.3724
L117.9286 77.3248
" />
</g><text x="114.0000" y="68.6300"
textLength="3.1548" font-size="1.3333" lengthAdjust="spacingAndGlyphs"
text-anchor="middle" opacity="0" stroke-opacity="0">R11</text>
<g class="stroked-text"><desc>R11</desc>
<path d="M113.3571 68.5848
L113.0238 68.1086
" />
<path d="M112.7857 68.5848
L112.7857 67.5848
" />
<path d="M112.7857 67.5848
L113.1667 67.5848
" />
<path d="M113.1667 67.5848
L113.2619 67.6324
" />
<path d="M113.2619 67.6324
L113.3095 67.6801
" />
<path d="M113.3095 67.6801
L113.3571 67.7753
" />
<path d="M113.3571 67.7753
L113.3571 67.9182
" />
<path d="M113.3571 67.9182
L113.3095 68.0134
" />
<path d="M113.3095 68.0134
L113.2619 68.0610
" />
<path d="M113.2619 68.0610
L113.1667 68.1086
" />
<path d="M113.1667 68.1086
L112.7857 68.1086
" />
<path d="M114.3095 68.5848
L113.7381 68.5848
" />
<path d="M114.0238 68.5848
L114.0238 67.5848
" />
<path d="M114.0238 67.5848
L113.9286 67.7277
" />
<path d="M113.9286 67.7277
L113.8333 67.8229
" />
<path d="M113.8333 67.8229
L113.7381 67.8705
" />
<path d="M115.2619 68.5848
L114.6905 68.5848
" />
<path d="M114.9762 68.5848
L114.9762 67.5848
" />
<path d="M114.9762 67.5848
L114.8810 67.7277
" />
<path d="M114.8810 67.7277
L114.7857 67.8229
" />
<path d="M114.7857 67.8229
L114.6905 67.8705
" />
</g><text x="152.7300" y="63.5400"
textLength="2.2024" font-size="1.3333" lengthAdjust="spacingAndGlyphs"
text-anchor="middle" opacity="0" stroke-opacity="0">D1</text>
<g class="stroked-text"><desc>D1</desc>
<path d="M151.9919 63.4948
L151.9919 62.4948
" />
<path d="M151.9919 62.4948
L152.2300 62.4948
" />
<path d="M152.2300 62.4948
L152.3729 62.5424
" />
<path d="M152.3729 62.5424
L152.4681 62.6377
" />
<path d="M152.4681 62.6377
L152.5157 62.7329
" />
<path d="M152.5157 62.7329
L152.5633 62.9234
" />
<path d="M152.5633 62.9234
L152.5633 63.0662
" />
<path d="M152.5633 63.0662
L152.5157 63.2567
" />
<path d="M152.5157 63.2567
L152.4681 63.3520
" />
<path d="M152.4681 63.3520
L152.3729 63.4472
" />
<path d="M152.3729 63.4472
L152.2300 63.4948
" />
<path d="M152.2300 63.4948
L151.9919 63.4948
" />
<path d="M153.5157 63.4948
L152.9443 63.4948
" />
<path d="M153.2300 63.4948
L153.2300 62.4948
" />
<path d="M153.2300 62.4948
L153.1348 62.6377
" />
<path d="M153.1348 62.6377
L153.0395 62.7329
" />
<path d="M153.0395 62.7329
L152.9443 62.7805
" />
</g><text x="127.2700" y="63.5400"
textLength="2.2024" font-size="1.3333" lengthAdjust="spacingAndGlyphs"
text-anchor="middle" opacity="0" stroke-opacity="0">D2</text>
<g class="stroked-text"><desc>D2</desc>
<path d="M126.5319 63.4948
L126.5319 62.4948
" />
<path d="M126.5319 62.4948
L126.7700 62.4948
" />
<path d="M126.7700 62.4948
L126.9129 62.5424
" />
<path d="M126.9129 62.5424
L127.0081 62.6377
" />
<path d="M127.0081 62.6377
L127.0557 62.7329
" />
<path d="M127.0557 62.7329
L127.1033 62.9234
" />
<path d="M127.1033 62.9234
L127.1033 63.0662
" />
<path d="M127.1033 63.0662
L127.0557 63.2567
" />
<path d="M127.0557 63.2567
L127.0081 63.3520
" />
<path d="M127.0081 63.3520
L126.9129 63.4472
" />
<path d="M126.9129 63.4472
L126.7700 63.4948
" />
<path d="M126.7700 63.4948
L126.5319 63.4948
" />
<path d="M127.4843 62.5901
L127.5319 62.5424
" />
<path d="M127.5319 62.5424
L127.6271 62.4948
" />
<path d="M127.6271 62.4948
L127.8652 62.4948
" />
<path d="M127.8652 62.4948
L127.9605 62.5424
" />
<path d="M127.9605 62.5424
L128.0081 62.5901
" />
<path d="M128.0081 62.5901
L128.0557 62.6853
" />
<path d="M128.0557 62.6853
L128.0557 62.7805
" />
<path d="M128.0557 62.7805
L128.0081 62.9234
" />
<path d="M128.0081 62.9234
L127.4367 63.4948
" />
<path d="M127.4367 63.4948
L128.0557 63.4948
" />
</g></g>
<g style="fill:none; 
stroke:#000000; stroke-width:0.1200; stroke-opacity:1; 
stroke-linecap:round; stroke-linejoin:round;">
<path d="M156.1300 75.2300
L156.4600 75.2300
" />
<path d="M156.1300 81.7700
L156.1300 75.2300
" />
<path d="M156.4600 81.7700
L156.1300 81.7700
" />
<path d="M158.5400 81.7700
L158.8700 81.7700
" />
<path d="M158.8700 75.2300
L158.5400 75.2300
" />
<path d="M158.8700 81.7700
L158.8700 75.2300
" />
<path d="M139.0400 117.1300
L139.0400 117.4600
" />
<path d="M139.0400 119.8700
L139.0400 119.5400
" />
<path d="M145.5800 117.1300
L139.0400 117.1300
" />
<path d="M145.5800 117.4600
L145.5800 117.1300
" />
<path d="M145.5800 119.5400
L145.5800 119.8700
" />
<path d="M145.5800 119.8700
L139.0400 119.8700
" />
<path d="M134.1877 87.1850
L134.9877 87.1850
" />
<path d="M134.5877 86.7850
L134.5877 87.5850
" />
<path d="M138.5973 85.4200
L138.5973 93.5800
" />
<path d="M138.6373 85.4200
L138.6373 93.5800
" />
<path d="M138.6773 85.4210
L138.6773 93.5790
" />
<path d="M138.7173 85.4220
L138.7173 93.5780
" />
<path d="M138.7573 85.4230
L138.7573 93.5770
" />
<path d="M138.7973 85.4250
L138.7973 93.5750
" />
<path d="M138.8373 85.4270
L138.8373 93.5730
" />
<path d="M138.8773 85.4300
L138.8773 93.5700
" />
<path d="M138.9173 85.4320
L138.9173 93.5680
" />
<path d="M138.9573 85.4360
L138.9573 93.5640
" />
<path d="M138.9973 85.4390
L138.9973 93.5610
" />
<path d="M139.0373 85.4440
L139.0373 93.5560
" />
<path d="M139.0773 85.4480
L139.0773 93.5520
" />
<path d="M139.1173 85.4530
L139.1173 93.5470
" />
<path d="M139.1573 85.4580
L139.1573 93.5420
" />
<path d="M139.1973 85.4640
L139.1973 93.5360
" />
<path d="M139.2373 85.4700
L139.2373 93.5300
" />
<path d="M139.2773 85.4770
L139.2773 93.5230
" />
<path d="M139.3173 85.4830
L139.3173 93.5170
" />
<path d="M139.3573 85.4910
L139.3573 93.5090
" />
<path d="M139.3973 85.4980
L139.3973 93.5020
" />
<path d="M139.4373 85.5070
L139.4373 93.4930
" />
<path d="M139.4773 85.5150
L139.4773 93.4850
" />
<path d="M139.5173 85.5240
L139.5173 93.4760
" />
<path d="M139.5573 85.5330
L139.5573 93.4670
" />
<path d="M139.5973 85.5430
L139.5973 93.4570
" />
<path d="M139.6373 85.5530
L139.6373 93.4470
" />
<path d="M139.6773 85.5640
L139.6773 93.4360
" />
<path d="M139.7173 85.5750
L139.7173 93.4250
" />
<path d="M139.7573 85.5870
L139.7573 93.4130
" />
<path d="M139.7973 85.5990
L139.7973 93.4010
" />
<path d="M139.8373 85.6110
L139.8373 93.3890
" />
<path d="M139.8773 85.6240
L139.8773 93.3760
" />
<path d="M139.9173 85.6370
L139.9173 93.3630
" />
<path d="M139.9573 85.6510
L139.9573 93.3490
" />
<path d="M139.9973 85.6650
L139.9973 93.3350
" />
<path d="M140.0373 85.6800
L140.0373 93.3200
" />
<path d="M140.0773 85.6950
L140.0773 88.4600
" />
<path d="M140.0773 90.5400
L140.0773 93.3050
" />
<path d="M140.1173 85.7110
L140.1173 88.4600
" />
<path d="M140.1173 90.5400
L140.1173 93.2890
" />
<path d="M140.1573 85.7270
L140.1573 88.4600
" />
<path d="M140.1573 90.5400
L140.1573 93.2730
" />
<path d="M140.1973 85.7430
L140.1973 88.4600
" />
<path d="M140.1973 90.5400
L140.1973 93.2570
" />
<path d="M140.2373 85.7600
L140.2373 88.4600
" />
<path d="M140.2373 90.5400
L140.2373 93.2400
" />
<path d="M140.2773 85.7780
L140.2773 88.4600
" />
<path d="M140.2773 90.5400
L140.2773 93.2220
" />
<path d="M140.3173 85.7960
L140.3173 88.4600
" />
<path d="M140.3173 90.5400
L140.3173 93.2040
" />
<path d="M140.3573 85.8150
L140.3573 88.4600
" />
<path d="M140.3573 90.5400
L140.3573 93.1850
" />
<path d="M140.3973 85.8340
L140.3973 88.4600
" />
<path d="M140.3973 90.5400
L140.3973 93.1660
" />
<path d="M140.4373 85.8540
L140.4373 88.4600
" />
<path d="M140.4373 90.5400
L140.4373 93.1460
" />
<path d="M140.4773 85.8740
L140.4773 88.4600
" />
<path d="M140.4773 90.5400
L140.4773 93.1260
" />
<path d="M140.5173 85.8950
L140.5173 88.4600
" />
<path d="M140.5173 90.5400
L140.5173 93.1050
" />
<path d="M140.5573 85.9160
L140.5573 88.4600
" />
<path d="M140.5573 90.5400
L140.5573 93.0840
" />
<path d="M140.5973 85.9380
L140.5973 88.4600
" />
<path d="M140.5973 90.5400
L140.5973 93.0620
" />
<path d="M140.6373 85.9610
L140.6373 88.4600
" />
<path d="M140.6373 90.5400
L140.6373 93.0390
" />
<path d="M140.6773 85.9840
L140.6773 88.4600
" />
<path d="M140.6773 90.5400
L140.6773 93.0160
" />
<path d="M140.7173 86.0070
L140.7173 88.4600
" />
<path d="M140.7173 90.5400
L140.7173 92.9930
" />
<path d="M140.7573 86.0320
L140.7573 88.4600
" />
<path d="M140.7573 90.5400
L140.7573 92.9680
" />
<path d="M140.7973 86.0570
L140.7973 88.4600
" />
<path d="M140.7973 90.5400
L140.7973 92.9430
" />
<path d="M140.8373 86.0820
L140.8373 88.4600
" />
<path d="M140.8373 90.5400
L140.8373 92.9180
" />
<path d="M140.8773 86.1080
L140.8773 88.4600
" />
<path d="M140.8773 90.5400
L140.8773 92.8920
" />
<path d="M140.9173 86.1350
L140.9173 88.4600
" />
<path d="M140.9173 90.5400
L140.9173 92.8650
" />
<path d="M140.9573 86.1630
L140.9573 88.4600
" />
<path d="M140.9573 90.5400
L140.9573 92.8370
" />
<path d="M140.9973 86.1910
L140.9973 88.4600
" />
<path d="M140.9973 90.5400
L140.9973 92.8090
" />
<path d="M141.0373 86.2200
L141.0373 88.4600
" />
<path d="M141.0373 90.5400
L141.0373 92.7800
" />
<path d="M141.0773 86.2500
L141.0773 88.4600
" />
<path d="M141.0773 90.5400
L141.0773 92.7500
" />
<path d="M141.1173 86.2810
L141.1173 88.4600
" />
<path d="M141.1173 90.5400
L141.1173 92.7190
" />
<path d="M141.1573 86.3120
L141.1573 88.4600
" />
<path d="M141.1573 90.5400
L141.1573 92.6880
" />
<path d="M141.1973 86.3440
L141.1973 88.4600
" />
<path d="M141.1973 90.5400
L141.1973 92.6560
" />
<path d="M141.2373 86.3770
L141.2373 88.4600
" />
<path d="M141.2373 90.5400
L141.2373 92.6230
" />
<path d="M141.2773 86.4110
L141.2773 88.4600
" />
<path d="M141.2773 90.5400
L141.2773 92.5890
" />
<path d="M141.3173 86.4450
L141.3173 88.4600
" />
<path d="M141.3173 90.5400
L141.3173 92.5550
" />
<path d="M141.3573 86.4810
L141.3573 88.4600
" />
<path d="M141.3573 90.5400
L141.3573 92.5190
" />
<path d="M141.3973 86.5180
L141.3973 88.4600
" />
<path d="M141.3973 90.5400
L141.3973 92.4820
" />
<path d="M141.4373 86.5550
L141.4373 88.4600
" />
<path d="M141.4373 90.5400
L141.4373 92.4450
" />
<path d="M141.4773 86.5940
L141.4773 88.4600
" />
<path d="M141.4773 90.5400
L141.4773 92.4060
" />
<path d="M141.5173 86.6330
L141.5173 88.4600
" />
<path d="M141.5173 90.5400
L141.5173 92.3670
" />
<path d="M141.5573 86.6740
L141.5573 88.4600
" />
<path d="M141.5573 90.5400
L141.5573 92.3260
" />
<path d="M141.5973 86.7160
L141.5973 88.4600
" />
<path d="M141.5973 90.5400
L141.5973 92.2840
" />
<path d="M141.6373 86.7590
L141.6373 88.4600
" />
<path d="M141.6373 90.5400
L141.6373 92.2410
" />
<path d="M141.6773 86.8040
L141.6773 88.4600
" />
<path d="M141.6773 90.5400
L141.6773 92.1960
" />
<path d="M141.7173 86.8490
L141.7173 88.4600
" />
<path d="M141.7173 90.5400
L141.7173 92.1510
" />
<path d="M141.7573 86.8960
L141.7573 88.4600
" />
<path d="M141.7573 90.5400
L141.7573 92.1040
" />
<path d="M141.7973 86.9450
L141.7973 88.4600
" />
<path d="M141.7973 90.5400
L141.7973 92.0550
" />
<path d="M141.8373 86.9950
L141.8373 88.4600
" />
<path d="M141.8373 90.5400
L141.8373 92.0050
" />
<path d="M141.8773 87.0470
L141.8773 88.4600
" />
<path d="M141.8773 90.5400
L141.8773 91.9530
" />
<path d="M141.9173 87.1000
L141.9173 88.4600
" />
<path d="M141.9173 90.5400
L141.9173 91.9000
" />
<path d="M141.9573 87.1560
L141.9573 88.4600
" />
<path d="M141.9573 90.5400
L141.9573 91.8440
" />
<path d="M141.9973 87.2130
L141.9973 88.4600
" />
<path d="M141.9973 90.5400
L141.9973 91.7870
" />
<path d="M142.0373 87.2730
L142.0373 88.4600
" />
<path d="M142.0373 90.5400
L142.0373 91.7270
" />
<path d="M142.0773 87.3350
L142.0773 88.4600
" />
<path d="M142.0773 90.5400
L142.0773 91.6650
" />
<path d="M142.1173 87.3990
L142.1173 88.4600
" />
<path d="M142.1173 90.5400
L142.1173 91.6010
" />
<path d="M142.1573 87.4660
L142.1573 91.5340
" />
<path d="M142.1973 87.5360
L142.1973 91.4640
" />
<path d="M142.2373 87.6100
L142.2373 91.3900
" />
<path d="M142.2773 87.6870
L142.2773 91.3130
" />
<path d="M142.3173 87.7690
L142.3173 91.2310
" />
<path d="M142.3573 87.8560
L142.3573 91.1440
" />
<path d="M142.3973 87.9480
L142.3973 91.0520
" />
<path d="M142.4373 88.0470
L142.4373 90.9530
" />
<path d="M142.4773 88.1540
L142.4773 90.8460
" />
<path d="M142.5173 88.2720
L142.5173 90.7280
" />
<path d="M142.5573 88.4030
L142.5573 90.5970
" />
<path d="M142.5973 88.5530
L142.5973 90.4470
" />
<path d="M142.6373 88.7320
L142.6373 90.2680
" />
<path d="M142.6773 88.9670
L142.6773 90.0330
" />
<circle cx="138.5973" cy="89.5000" r="4.1200" /> 
<path d="M128.2000 83.1200
L131.8000 83.1200
" />
<path d="M129.1800 78.8200 A2.5836 2.5836 0.0 0 0 128.1885 83.1122" />
<path d="M131.8084 83.0977 A2.5712 2.5712 0.0 0 0 130.7800 78.8200" />
<path d="M124.2300 73.6300
L130.7700 73.6300
" />
<path d="M124.2300 73.9600
L124.2300 73.6300
" />
<path d="M124.2300 76.0400
L124.2300 76.3700
" />
<path d="M124.2300 76.3700
L130.7700 76.3700
" />
<path d="M130.7700 73.6300
L130.7700 73.9600
" />
<path d="M130.7700 76.3700
L130.7700 76.0400
" />
<path d="M134.0903 75.6850
L134.8903 75.6850
" />
<path d="M134.4903 75.2850
L134.4903 76.0850
" />
<path d="M138.5000 73.9200
L138.5000 82.0800
" />
<path d="M138.5400 73.9200
L138.5400 82.0800
" />
<path d="M138.5800 73.9210
L138.5800 82.0790
" />
<path d="M138.6200 73.9220
L138.6200 82.0780
" />
<path d="M138.6600 73.9230
L138.6600 82.0770
" />
<path d="M138.7000 73.9250
L138.7000 82.0750
" />
<path d="M138.7400 73.9270
L138.7400 82.0730
" />
<path d="M138.7800 73.9300
L138.7800 82.0700
" />
<path d="M138.8200 73.9320
L138.8200 82.0680
" />
<path d="M138.8600 73.9360
L138.8600 82.0640
" />
<path d="M138.9000 73.9390
L138.9000 82.0610
" />
<path d="M138.9400 73.9440
L138.9400 82.0560
" />
<path d="M138.9800 73.9480
L138.9800 82.0520
" />
<path d="M139.0200 73.9530
L139.0200 82.0470
" />
<path d="M139.0600 73.9580
L139.0600 82.0420
" />
<path d="M139.1000 73.9640
L139.1000 82.0360
" />
<path d="M139.1400 73.9700
L139.1400 82.0300
" />
<path d="M139.1800 73.9770
L139.1800 82.0230
" />
<path d="M139.2200 73.9830
L139.2200 82.0170
" />
<path d="M139.2600 73.9910
L139.2600 82.0090
" />
<path d="M139.3000 73.9980
L139.3000 82.0020
" />
<path d="M139.3400 74.0070
L139.3400 81.9930
" />
<path d="M139.3800 74.0150
L139.3800 81.9850
" />
<path d="M139.4200 74.0240
L139.4200 81.9760
" />
<path d="M139.4600 74.0330
L139.4600 81.9670
" />
<path d="M139.5000 74.0430
L139.5000 81.9570
" />
<path d="M139.5400 74.0530
L139.5400 81.9470
" />
<path d="M139.5800 74.0640
L139.5800 81.9360
" />
<path d="M139.6200 74.0750
L139.6200 81.9250
" />
<path d="M139.6600 74.0870
L139.6600 81.9130
" />
<path d="M139.7000 74.0990
L139.7000 81.9010
" />
<path d="M139.7400 74.1110
L139.7400 81.8890
" />
<path d="M139.7800 74.1240
L139.7800 81.8760
" />
<path d="M139.8200 74.1370
L139.8200 81.8630
" />
<path d="M139.8600 74.1510
L139.8600 81.8490
" />
<path d="M139.9000 74.1650
L139.9000 81.8350
" />
<path d="M139.9400 74.1800
L139.9400 81.8200
" />
<path d="M139.9800 74.1950
L139.9800 76.9600
" />
<path d="M139.9800 79.0400
L139.9800 81.8050
" />
<path d="M140.0200 74.2110
L140.0200 76.9600
" />
<path d="M140.0200 79.0400
L140.0200 81.7890
" />
<path d="M140.0600 74.2270
L140.0600 76.9600
" />
<path d="M140.0600 79.0400
L140.0600 81.7730
" />
<path d="M140.1000 74.2430
L140.1000 76.9600
" />
<path d="M140.1000 79.0400
L140.1000 81.7570
" />
<path d="M140.1400 74.2600
L140.1400 76.9600
" />
<path d="M140.1400 79.0400
L140.1400 81.7400
" />
<path d="M140.1800 74.2780
L140.1800 76.9600
" />
<path d="M140.1800 79.0400
L140.1800 81.7220
" />
<path d="M140.2200 74.2960
L140.2200 76.9600
" />
<path d="M140.2200 79.0400
L140.2200 81.7040
" />
<path d="M140.2600 74.3150
L140.2600 76.9600
" />
<path d="M140.2600 79.0400
L140.2600 81.6850
" />
<path d="M140.3000 74.3340
L140.3000 76.9600
" />
<path d="M140.3000 79.0400
L140.3000 81.6660
" />
<path d="M140.3400 74.3540
L140.3400 76.9600
" />
<path d="M140.3400 79.0400
L140.3400 81.6460
" />
<path d="M140.3800 74.3740
L140.3800 76.9600
" />
<path d="M140.3800 79.0400
L140.3800 81.6260
" />
<path d="M140.4200 74.3950
L140.4200 76.9600
" />
<path d="M140.4200 79.0400
L140.4200 81.6050
" />
<path d="M140.4600 74.4160
L140.4600 76.9600
" />
<path d="M140.4600 79.0400
L140.4600 81.5840
" />
<path d="M140.5000 74.4380
L140.5000 76.9600
" />
<path d="M140.5000 79.0400
L140.5000 81.5620
" />
<path d="M140.5400 74.4610
L140.5400 76.9600
" />
<path d="M140.5400 79.0400
L140.5400 81.5390
" />
<path d="M140.5800 74.4840
L140.5800 76.9600
" />
<path d="M140.5800 79.0400
L140.5800 81.5160
" />
<path d="M140.6200 74.5070
L140.6200 76.9600
" />
<path d="M140.6200 79.0400
L140.6200 81.4930
" />
<path d="M140.6600 74.5320
L140.6600 76.9600
" />
<path d="M140.6600 79.0400
L140.6600 81.4680
" />
<path d="M140.7000 74.5570
L140.7000 76.9600
" />
<path d="M140.7000 79.0400
L140.7000 81.4430
" />
<path d="M140.7400 74.5820
L140.7400 76.9600
" />
<path d="M140.7400 79.0400
L140.7400 81.4180
" />
<path d="M140.7800 74.6080
L140.7800 76.9600
" />
<path d="M140.7800 79.0400
L140.7800 81.3920
" />
<path d="M140.8200 74.6350
L140.8200 76.9600
" />
<path d="M140.8200 79.0400
L140.8200 81.3650
" />
<path d="M140.8600 74.6630
L140.8600 76.9600
" />
<path d="M140.8600 79.0400
L140.8600 81.3370
" />
<path d="M140.9000 74.6910
L140.9000 76.9600
" />
<path d="M140.9000 79.0400
L140.9000 81.3090
" />
<path d="M140.9400 74.7200
L140.9400 76.9600
" />
<path d="M140.9400 79.0400
L140.9400 81.2800
" />
<path d="M140.9800 74.7500
L140.9800 76.9600
" />
<path d="M140.9800 79.0400
L140.9800 81.2500
" />
<path d="M141.0200 74.7810
L141.0200 76.9600
" />
<path d="M141.0200 79.0400
L141.0200 81.2190
" />
<path d="M141.0600 74.8120
L141.0600 76.9600
" />
<path d="M141.0600 79.0400
L141.0600 81.1880
" />
<path d="M141.1000 74.8440
L141.1000 76.9600
" />
<path d="M141.1000 79.0400
L141.1000 81.1560
" />
<path d="M141.1400 74.8770
L141.1400 76.9600
" />
<path d="M141.1400 79.0400
L141.1400 81.1230
" />
<path d="M141.1800 74.9110
L141.1800 76.9600
" />
<path d="M141.1800 79.0400
L141.1800 81.0890
" />
<path d="M141.2200 74.9450
L141.2200 76.9600
" />
<path d="M141.2200 79.0400
L141.2200 81.0550
" />
<path d="M141.2600 74.9810
L141.2600 76.9600
" />
<path d="M141.2600 79.0400
L141.2600 81.0190
" />
<path d="M141.3000 75.0180
L141.3000 76.9600
" />
<path d="M141.3000 79.0400
L141.3000 80.9820
" />
<path d="M141.3400 75.0550
L141.3400 76.9600
" />
<path d="M141.3400 79.0400
L141.3400 80.9450
" />
<path d="M141.3800 75.0940
L141.3800 76.9600
" />
<path d="M141.3800 79.0400
L141.3800 80.9060
" />
<path d="M141.4200 75.1330
L141.4200 76.9600
" />
<path d="M141.4200 79.0400
L141.4200 80.8670
" />
<path d="M141.4600 75.1740
L141.4600 76.9600
" />
<path d="M141.4600 79.0400
L141.4600 80.8260
" />
<path d="M141.5000 75.2160
L141.5000 76.9600
" />
<path d="M141.5000 79.0400
L141.5000 80.7840
" />
<path d="M141.5400 75.2590
L141.5400 76.9600
" />
<path d="M141.5400 79.0400
L141.5400 80.7410
" />
<path d="M141.5800 75.3040
L141.5800 76.9600
" />
<path d="M141.5800 79.0400
L141.5800 80.6960
" />
<path d="M141.6200 75.3490
L141.6200 76.9600
" />
<path d="M141.6200 79.0400
L141.6200 80.6510
" />
<path d="M141.6600 75.3960
L141.6600 76.9600
" />
<path d="M141.6600 79.0400
L141.6600 80.6040
" />
<path d="M141.7000 75.4450
L141.7000 76.9600
" />
<path d="M141.7000 79.0400
L141.7000 80.5550
" />
<path d="M141.7400 75.4950
L141.7400 76.9600
" />
<path d="M141.7400 79.0400
L141.7400 80.5050
" />
<path d="M141.7800 75.5470
L141.7800 76.9600
" />
<path d="M141.7800 79.0400
L141.7800 80.4530
" />
<path d="M141.8200 75.6000
L141.8200 76.9600
" />
<path d="M141.8200 79.0400
L141.8200 80.4000
" />
<path d="M141.8600 75.6560
L141.8600 76.9600
" />
<path d="M141.8600 79.0400
L141.8600 80.3440
" />
<path d="M141.9000 75.7130
L141.9000 76.9600
" />
<path d="M141.9000 79.0400
L141.9000 80.2870
" />
<path d="M141.9400 75.7730
L141.9400 76.9600
" />
<path d="M141.9400 79.0400
L141.9400 80.2270
" />
<path d="M141.9800 75.8350
L141.9800 76.9600
" />
<path d="M141.9800 79.0400
L141.9800 80.1650
" />
<path d="M142.0200 75.8990
L142.0200 76.9600
" />
<path d="M142.0200 79.0400
L142.0200 80.1010
" />
<path d="M142.0600 75.9660
L142.0600 80.0340
" />
<path d="M142.1000 76.0360
L142.1000 79.9640
" />
<path d="M142.1400 76.1100
L142.1400 79.8900
" />
<path d="M142.1800 76.1870
L142.1800 79.8130
" />
<path d="M142.2200 76.2690
L142.2200 79.7310
" />
<path d="M142.2600 76.3560
L142.2600 79.6440
" />
<path d="M142.3000 76.4480
L142.3000 79.5520
" />
<path d="M142.3400 76.5470
L142.3400 79.4530
" />
<path d="M142.3800 76.6540
L142.3800 79.3460
" />
<path d="M142.4200 76.7720
L142.4200 79.2280
" />
<path d="M142.4600 76.9030
L142.4600 79.0970
" />
<path d="M142.5000 77.0530
L142.5000 78.9470
" />
<path d="M142.5400 77.2320
L142.5400 78.7680
" />
<path d="M142.5800 77.4670
L142.5800 78.5330
" />
<circle cx="138.5000" cy="78.0000" r="4.1200" /> 
<path d="M166.7000 91.6200
L170.3000 91.6200
" />
<path d="M167.6800 87.3200 A2.5836 2.5836 0.0 0 0 166.6885 91.6122" />
<path d="M170.3084 91.5977 A2.5712 2.5712 0.0 0 0 169.2800 87.3200" />
<path d="M161.1300 72.2300
L161.4600 72.2300
" />
<path d="M161.1300 78.7700
L161.1300 72.2300
" />
<path d="M161.4600 78.7700
L161.1300 78.7700
" />
<path d="M163.5400 78.7700
L163.8700 78.7700
" />
<path d="M163.8700 72.2300
L163.5400 72.2300
" />
<path d="M163.8700 78.7700
L163.8700 72.2300
" />
<path d="M150.2300 70.6300
L156.7700 70.6300
" />
<path d="M150.2300 70.9600
L150.2300 70.6300
" />
<path d="M150.2300 73.0400
L150.2300 73.3700
" />
<path d="M150.2300 73.3700
L156.7700 73.3700
" />
<path d="M156.7700 70.6300
L156.7700 70.9600
" />
<path d="M156.7700 73.3700
L156.7700 73.0400
" />
<path d="M135.9200 112.1300
L142.4600 112.1300
" />
<path d="M135.9200 112.4600
L135.9200 112.1300
" />
<path d="M135.9200 114.5400
L135.9200 114.8700
" />
<path d="M135.9200 114.8700
L142.4600 114.8700
" />
<path d="M142.4600 112.1300
L142.4600 112.4600
" />
<path d="M142.4600 114.8700
L142.4600 114.5400
" />
<path d="M118.0400 79.1300
L118.0400 79.4600
" />
<path d="M118.0400 81.8700
L118.0400 81.5400
" />
<path d="M124.5800 79.1300
L118.0400 79.1300
" />
<path d="M124.5800 79.4600
L124.5800 79.1300
" />
<path d="M124.5800 81.5400
L124.5800 81.8700
" />
<path d="M124.5800 81.8700
L118.0400 81.8700
" />
<path d="M125.4200 114.6300
L131.9600 114.6300
" />
<path d="M125.4200 114.9600
L125.4200 114.6300
" />
<path d="M125.4200 117.0400
L125.4200 117.3700
" />
<path d="M125.4200 117.3700
L131.9600 117.3700
" />
<path d="M131.9600 114.6300
L131.9600 114.9600
" />
<path d="M131.9600 117.3700
L131.9600 117.0400
" />
<path d="M144.4200 80.1300
L150.9600 80.1300
" />
<path d="M144.4200 80.4600
L144.4200 80.1300
" />
<path d="M144.4200 82.5400
L144.4200 82.8700
" />
<path d="M144.4200 82.8700
L150.9600 82.8700
" />
<path d="M150.9600 80.1300
L150.9600 80.4600
" />
<path d="M150.9600 82.8700
L150.9600 82.5400
" />
<path d="M147.4200 75.6300
L153.9600 75.6300
" />
<path d="M147.4200 75.9600
L147.4200 75.6300
" />
<path d="M147.4200 78.0400
L147.4200 78.3700
" />
<path d="M147.4200 78.3700
L153.9600 78.3700
" />
<path d="M153.9600 75.6300
L153.9600 75.9600
" />
<path d="M153.9600 78.3700
L153.9600 78.0400
" />
<path d="M143.4600 92.3000
L143.4600 95.8000
" />
<path d="M143.4600 92.3000
L145.5400 90.2200
" />
<path d="M143.4600 106.2000
L143.4600 109.7000
" />
<path d="M143.4600 109.7000
L145.5400 111.7800
" />
<path d="M145.5400 90.2200
L148.0000 90.2200
" />
<path d="M145.5400 111.7800
L148.0000 111.7800
" />
<path d="M154.0000 90.2200
L154.6300 90.2200
" />
<path d="M154.0000 111.7800
L154.6300 111.7800
" />
<path d="M154.6300 90.2200
L158.5800 91.6600
" />
<path d="M154.6300 111.7800
L158.5800 110.3400
" />
<path d="M159.5500 95.0000 A2.1462 2.1462 0.0 0 0 158.5882 91.6748" />
<path d="M158.5800 110.3400 A2.1573 2.1573 0.0 0 0 159.5665 107.0034" />
<path d="M118.9600 92.3000
L118.9600 95.8000
" />
<path d="M118.9600 92.3000
L121.0400 90.2200
" />
<path d="M118.9600 106.2000
L118.9600 109.7000
" />
<path d="M118.9600 109.7000
L121.0400 111.7800
" />
<path d="M121.0400 90.2200
L123.5000 90.2200
" />
<path d="M121.0400 111.7800
L123.5000 111.7800
" />
<path d="M129.5000 90.2200
L130.1300 90.2200
" />
<path d="M129.5000 111.7800
L130.1300 111.7800
" />
<path d="M130.1300 90.2200
L134.0800 91.6600
" />
<path d="M130.1300 111.7800
L134.0800 110.3400
" />
<path d="M135.0500 95.0000 A2.1462 2.1462 0.0 0 0 134.0882 91.6748" />
<path d="M134.0800 110.3400 A2.1573 2.1573 0.0 0 0 135.0665 107.0034" />
<path d="M113.7300 74.1300
L113.7300 74.4600
" />
<path d="M113.7300 76.8700
L113.7300 76.5400
" />
<path d="M120.2700 74.1300
L113.7300 74.1300
" />
<path d="M120.2700 74.4600
L120.2700 74.1300
" />
<path d="M120.2700 76.5400
L120.2700 76.8700
" />
<path d="M120.2700 76.8700
L113.7300 76.8700
" />
<path d="M110.7300 69.1300
L117.2700 69.1300
" />
<path d="M110.7300 69.4600
L110.7300 69.1300
" />
<path d="M110.7300 71.5400
L110.7300 71.8700
" />
<path d="M110.7300 71.8700
L117.2700 71.8700
" />
<path d="M117.2700 69.1300
L117.2700 69.4600
" />
<path d="M117.2700 71.8700
L117.2700 71.5400
" />
<path style="fill:#000000; fill-opacity:1.0000; stroke:none;fill-rule:evenodd;"
d="M 114.0651,94.2417
114.0671,94.2490
114.0578,94.2396
Z" /> 
<path style="fill:#000000; fill-opacity:1.0000; stroke:none;fill-rule:evenodd;"
d="M 112.9262,92.8950
112.9049,92.9163
112.8836,92.8950
112.9049,92.8737
Z" /> 
<path style="fill:#000000; fill-opacity:1.0000; stroke:none;fill-rule:evenodd;"
d="M 113.0540,92.7671
113.0327,92.7884
113.0114,92.7671
113.0327,92.7458
Z" /> 
<path style="fill:#000000; fill-opacity:1.0000; stroke:none;fill-rule:evenodd;"
d="M 113.0540,93.8752
113.0327,93.8965
113.0114,93.8752
113.0327,93.8539
Z" /> 
<path style="fill:#000000; fill-opacity:1.0000; stroke:none;fill-rule:evenodd;"
d="M 113.0966,94.0883
113.0753,94.1096
113.0540,94.0883
113.0753,94.0669
Z" /> 
<path style="fill:#000000; fill-opacity:1.0000; stroke:none;fill-rule:evenodd;"
d="M 113.1393,94.1735
113.1180,94.1948
113.0966,94.1735
113.1180,94.1522
Z" /> 
<path style="fill:#000000; fill-opacity:1.0000; stroke:none;fill-rule:evenodd;"
d="M 113.5654,94.5997
113.5441,94.6210
113.5228,94.5997
113.5441,94.5784
Z" /> 
<path style="fill:#000000; fill-opacity:1.0000; stroke:none;fill-rule:evenodd;"
d="M 113.6507,94.5570
113.6294,94.5784
113.6081,94.5570
113.6294,94.5357
Z" /> 
<path style="fill:#000000; fill-opacity:1.0000; stroke:none;fill-rule:evenodd;"
d="M 113.7785,93.5342
113.7572,93.5555
113.7359,93.5342
113.7572,93.5129
Z" /> 
<path style="fill:#000000; fill-opacity:1.0000; stroke:none;fill-rule:evenodd;"
d="M 114.5883,93.8325
114.5669,93.8539
114.5456,93.8325
114.5669,93.8112
Z" /> 
<path style="fill:#000000; fill-opacity:1.0000; stroke:none;fill-rule:evenodd;"
d="M 114.5883,94.0030
114.5669,94.0243
114.5456,94.0030
114.5669,93.9817
Z" /> 
<path style="fill:#000000; fill-opacity:1.0000; stroke:none;fill-rule:evenodd;"
d="M 114.5883,94.5144
114.5669,94.5357
114.5456,94.5144
114.5669,94.4931
Z" /> 
<path style="fill:#000000; fill-opacity:1.0000; stroke:none;fill-rule:evenodd;"
d="M 114.6309,93.7473
114.6096,93.7686
114.5883,93.7473
114.6096,93.7260
Z" /> 
<path style="fill:#000000; fill-opacity:1.0000; stroke:none;fill-rule:evenodd;"
d="M 114.6735,93.9178
114.6522,93.9391
114.6309,93.9178
114.6522,93.8965
Z" /> 
<path style="fill:#000000; fill-opacity:1.0000; stroke:none;fill-rule:evenodd;"
d="M 114.7587,94.3866
114.7374,94.4079
114.7161,94.3866
114.7374,94.3653
Z" /> 
<path style="fill:#000000; fill-opacity:1.0000; stroke:none;fill-rule:evenodd;"
d="M 114.7587,94.5144
114.7374,94.5357
114.7161,94.5144
114.7374,94.4931
Z" /> 
<path style="fill:#000000; fill-opacity:1.0000; stroke:none;fill-rule:evenodd;"
d="M 114.8440,93.8325
114.8227,93.8539
114.8013,93.8325
114.8227,93.8112
Z" /> 
<path style="fill:#000000; fill-opacity:1.0000; stroke:none;fill-rule:evenodd;"
d="M 115.2275,94.0883
115.2062,94.1096
115.1849,94.0883
115.2062,94.0669
Z" /> 
<path style="fill:#000000; fill-opacity:1.0000; stroke:none;fill-rule:evenodd;"
d="M 105.5844,92.0382
105.5717,92.0575
105.5285,92.0606
105.4830,92.0502
105.5027,92.0348
105.5694,92.0297
Z" /> 
<path style="fill:#000000; fill-opacity:1.0000; stroke:none;fill-rule:evenodd;"
d="M 118.0951,89.9214
118.1042,89.9331
118.1192,89.9714
118.0789,89.9569
118.0403,89.9331
118.0075,89.8988
118.0271,89.8911
Z" /> 
<path style="fill:#000000; fill-opacity:1.0000; stroke:none;fill-rule:evenodd;"
d="M 118.1872,89.7463
118.2472,89.7807
118.2372,89.8030
118.2133,89.8052
118.1555,89.7742
118.1471,89.7631
118.1540,89.7389
Z" /> 
<path style="fill:#000000; fill-opacity:1.0000; stroke:none;fill-rule:evenodd;"
d="M 114.4625,94.5507
114.5067,94.5855
114.4901,94.6352
114.4529,94.6551
114.4199,94.6583
114.4546,94.6294
114.4873,94.5867
114.4642,94.5654
114.4423,94.5487
Z" /> 
<path style="fill:#000000; fill-opacity:1.0000; stroke:none;fill-rule:evenodd;"
d="M 105.6279,92.1048
105.6599,92.1073
106.0008,92.1363
105.5534,92.1391
105.3749,92.1376
105.2538,92.1312
105.2001,92.1208
105.2124,92.1101
105.3052,92.0985
105.4534,92.0966
Z" /> 
<path style="fill:#000000; fill-opacity:1.0000; stroke:none;fill-rule:evenodd;"
d="M 106.8106,91.7776
106.7985,91.7883
106.7253,91.8082
106.6037,91.8324
106.5122,91.8415
106.4665,91.8374
106.4989,91.8198
106.5336,91.8082
106.6617,91.7812
106.7466,91.7749
Z" /> 
<path style="fill:#000000; fill-opacity:1.0000; stroke:none;fill-rule:evenodd;"
d="M 106.4736,92.0749
106.4793,92.0754
106.5197,92.0833
106.4831,92.0893
106.3782,92.0924
106.3418,92.0926
106.2174,92.0907
106.1558,92.0854
106.1672,92.0777
106.1810,92.0758
106.3219,92.0686
Z" /> 
<path style="fill:#000000; fill-opacity:1.0000; stroke:none;fill-rule:evenodd;"
d="M 113.7010,93.5871
113.7668,93.6175
113.7954,93.6097
113.8082,93.6155
113.7975,93.6527
113.7726,93.7115
113.7495,93.7103
113.7053,93.6439
113.6967,93.6301
113.6596,93.5662
113.6709,93.5635
Z" /> 
<path style="fill:#000000; fill-opacity:1.0000; stroke:none;fill-rule:evenodd;"
d="M 106.3346,91.8752
106.2567,91.8980
106.1926,91.9147
106.0244,91.9535
105.8585,91.9853
105.7878,91.9959
105.7108,92.0036
105.7097,91.9970
105.7876,91.9741
105.8517,91.9575
106.0199,91.9187
106.1858,91.8869
106.2565,91.8762
106.3335,91.8685
Z" /> 
<path style="fill:#000000; fill-opacity:1.0000; stroke:none;fill-rule:evenodd;"
d="M 111.2416,92.1499
111.3561,92.2352
111.4142,92.2924
111.5405,92.4504
111.6328,92.6173
111.6814,92.7712
111.6768,92.8900
111.6761,92.8918
111.6373,92.9481
111.5786,92.9438
111.4877,92.8755
111.4327,92.8227
111.3277,92.6930
111.2350,92.5393
111.2164,92.4995
111.1509,92.3156
111.1356,92.1936
111.1669,92.1372
Z" /> 
<path style="fill:#000000; fill-opacity:1.0000; stroke:none;fill-rule:evenodd;"
d="M 117.8854,89.9198
117.8621,89.9722
117.8413,90.0632
117.8833,90.1372
117.9658,90.1824
118.0663,90.1865
118.1626,90.1376
118.1649,90.1355
118.2061,90.1053
118.2030,90.1431
118.2021,90.1461
118.1464,90.2035
118.0470,90.2232
117.9372,90.2047
117.8531,90.1513
117.8100,90.0666
117.8049,89.9737
117.8353,89.9057
117.8730,89.8904
Z" /> 
<path style="fill:#000000; fill-opacity:1.0000; stroke:none;fill-rule:evenodd;"
d="M 112.7034,91.8756
112.7643,91.9223
112.8157,91.9848
112.8354,92.0672
112.8299,92.1994
112.8279,92.2189
112.7866,92.4092
112.7106,92.5789
112.6111,92.7163
112.4995,92.8100
112.3871,92.8483
112.2851,92.8196
112.2616,92.7997
112.2200,92.7305
112.2052,92.6201
112.2099,92.4904
112.2618,92.2418
112.3760,92.0470
112.5495,91.9112
112.5499,91.9110
112.6427,91.8701
Z" /> 
<path style="fill:#000000; fill-opacity:1.0000; stroke:none;fill-rule:evenodd;"
d="M 113.7147,92.8720
113.8680,92.9359
114.0567,93.0245
114.2428,93.1265
114.4359,93.2505
114.6217,93.3854
114.7862,93.5197
114.9155,93.6423
114.9954,93.7418
115.0144,93.7937
115.0010,93.8444
114.9557,93.8355
114.8714,93.7635
114.8013,93.6911
114.5809,93.4812
114.3238,93.2892
114.0099,93.1006
113.8870,93.0348
113.7121,92.9389
113.6120,92.8744
113.5822,92.8416
113.6179,92.8407
Z" /> 
<path style="fill:#000000; fill-opacity:1.0000; stroke:none;fill-rule:evenodd;"
d="M 115.1138,94.5757
115.1123,94.6068
115.0719,94.6441
115.0526,94.6395
115.0167,94.6473
115.0144,94.6611
114.9870,94.7027
114.9331,94.6918
114.9097,94.6665
114.9105,94.6608
114.9396,94.6608
114.9455,94.6636
114.9844,94.6336
114.9931,94.6210
115.0040,94.5811
114.9982,94.5784
114.9593,94.6084
114.9505,94.6210
114.9396,94.6608
114.9105,94.6608
114.9171,94.6149
114.9854,94.5720
115.0628,94.5558
Z" /> 
<path style="fill:#000000; fill-opacity:1.0000; stroke:none;fill-rule:evenodd;"
d="M 116.5894,93.5342
116.5527,93.6840
116.4491,93.8261
116.2967,93.9465
116.1135,94.0311
115.9178,94.0658
115.9058,94.0660
115.7973,94.0735
115.7306,94.0906
115.7263,94.0938
115.7361,94.1387
115.7870,94.2316
115.8684,94.3528
115.8737,94.3601
116.1408,94.7431
116.4006,95.1450
116.6419,95.5469
116.8536,95.9302
117.0246,96.2759
117.0801,96.4019
117.1489,96.5809
117.2115,96.7723
117.2633,96.9574
117.2993,97.1175
117.3148,97.2339
117.3066,97.2866
117.2831,97.2588
117.2361,97.1673
117.1733,97.0278
117.1250,96.9124
116.9561,96.5264
116.7820,96.1925
116.5848,95.8783
116.4272,95.6580
116.2537,95.4401
116.0436,95.1985
115.8202,94.9585
115.6066,94.7451
115.4745,94.6244
115.3593,94.5246
115.2513,94.6529
115.0648,94.8162
114.8520,94.9003
114.6212,94.9036
114.3811,94.8247
114.3580,94.8128
114.2429,94.7532
114.1625,94.7145
114.1402,94.7062
114.1032,94.7339
114.0260,94.8056
113.9540,94.8767
113.8223,94.9907
113.7121,95.0400
113.6647,95.0439
113.5441,95.0407
113.6777,94.9906
113.7934,94.9262
113.9137,94.8286
113.9399,94.8021
114.0286,94.7176
114.1001,94.6685
114.1178,94.6636
114.1458,94.6372
114.1381,94.6167
114.1356,94.5913
114.1948,94.6157
114.1972,94.6170
114.2781,94.6718
114.3118,94.7071
114.3650,94.7293
114.3847,94.7216
114.4107,94.7196
114.4005,94.7422
114.3968,94.7861
114.4128,94.7914
114.4730,94.7603
114.4817,94.7488
114.5434,94.7104
114.5588,94.7096
114.5842,94.7199
114.5563,94.7344
114.5022,94.7735
114.5229,94.8083
114.6079,94.8304
114.6777,94.8341
114.8587,94.8098
115.0343,94.7464
115.1694,94.6575
115.1930,94.6326
115.2289,94.5533
115.2591,94.4253
115.2695,94.3492
115.2917,94.2198
115.3374,94.1308
115.4214,94.0725
115.5587,94.0353
115.7641,94.0098
115.8013,94.0064
116.0586,93.9686
116.2485,93.9027
116.3862,93.8004
116.4872,93.6537
116.4936,93.6408
116.5508,93.5376
116.5830,93.5107
Z" /> 
<path style="fill:#000000; fill-opacity:1.0000; stroke:none;fill-rule:evenodd;"
d="M 113.1586,86.7755
113.2125,86.8813
113.2743,87.0381
113.3378,87.2302
113.3970,87.4415
113.4149,87.5143
113.5069,87.9794
113.5782,88.5031
113.6266,89.0607
113.6492,89.6276
113.6507,89.8045
113.6519,90.0838
113.6584,90.2865
113.6747,90.4212
113.7050,90.4965
113.7539,90.5210
113.8256,90.5033
113.9245,90.4520
113.9676,90.4270
114.2311,90.3142
114.4922,90.2846
114.7417,90.3373
114.8613,90.3764
114.9716,90.3914
115.1062,90.3842
115.2424,90.3655
115.3942,90.3432
115.6067,90.3132
115.8560,90.2789
116.1183,90.2435
116.2290,90.2287
116.5964,90.1799
116.8881,90.1401
117.1129,90.1074
117.2795,90.0797
117.3969,90.0553
117.4737,90.0321
117.5189,90.0081
117.5412,89.9814
117.5494,89.9501
117.5507,89.9360
117.5988,89.8112
117.7115,89.7238
117.8723,89.6848
117.9278,89.6842
118.0334,89.6889
118.0574,89.6938
118.0032,89.7016
117.9550,89.7068
117.7909,89.7430
117.6680,89.8061
117.5984,89.8848
117.5943,89.9679
117.6236,90.0107
117.6143,90.0446
117.5209,90.0797
117.4375,90.0987
117.3475,90.1143
117.1920,90.1387
116.9844,90.1701
116.7384,90.2064
116.4674,90.2457
116.1852,90.2862
115.9051,90.3259
115.6407,90.3628
115.4056,90.3951
115.2134,90.4207
115.0776,90.4378
115.0117,90.4444
115.0102,90.4445
114.9722,90.4712
114.9717,90.4764
115.0104,90.4908
115.1117,90.4971
115.2450,90.4943
115.4015,90.4934
115.5328,90.5056
115.6004,90.5240
115.6604,90.5370
115.7712,90.5354
115.9415,90.5184
116.1797,90.4851
116.4245,90.4464
116.6867,90.4041
116.9388,90.3644
117.1608,90.3304
117.3326,90.3052
117.4123,90.2945
117.5807,90.2614
117.6835,90.2143
117.7020,90.1944
117.7306,90.1569
117.7271,90.1929
117.7195,90.2216
117.7154,90.2934
117.7647,90.3441
117.8347,90.3775
118.0116,90.4189
118.1721,90.3984
118.2987,90.3243
118.3736,90.2043
118.3862,90.1289
118.3942,90.0579
118.4081,90.0643
118.4112,90.0749
118.4111,90.2291
118.3373,90.3607
118.2549,90.4224
118.1336,90.4727
118.0244,90.4799
117.8958,90.4422
117.7920,90.3951
117.6021,90.3032
116.7510,90.4409
116.4889,90.4840
116.2537,90.5238
116.0589,90.5579
115.9184,90.5841
115.8458,90.5997
115.8409,90.6013
115.8122,90.6313
115.8346,90.6932
115.8769,90.7569
115.9399,90.8790
115.9759,91.0414
115.9879,91.1773
115.9986,91.3331
116.0205,91.4257
116.0715,91.4767
116.1692,91.5080
116.2763,91.5301
116.4374,91.6025
116.5691,91.7363
116.6510,91.9083
116.6639,91.9714
116.6698,92.1789
116.6178,92.3492
116.5117,92.5000
116.3937,92.6437
116.3323,92.7503
116.3234,92.8426
116.3630,92.9433
116.4182,93.0322
116.4910,93.1538
116.5382,93.2550
116.5483,93.2965
116.5297,93.2995
116.4817,93.2405
116.4231,93.1462
116.3181,92.9959
116.1797,92.8390
116.0823,92.7478
115.9050,92.6138
115.7284,92.5159
115.5332,92.4481
115.3001,92.4046
115.0097,92.3794
114.8653,92.3727
114.6279,92.3609
114.4422,92.3459
114.3133,92.3293
114.2462,92.3128
114.2462,92.2981
114.3184,92.2866
114.4680,92.2801
114.5669,92.2792
114.9993,92.2948
115.3636,92.3447
115.6712,92.4318
115.9333,92.5589
116.0856,92.6651
116.1790,92.7313
116.2387,92.7588
116.2503,92.7520
116.2764,92.6987
116.3440,92.6047
116.4190,92.5135
116.5630,92.3088
116.6248,92.1184
116.6049,91.9358
116.5039,91.7547
116.4803,91.7255
116.3694,91.6330
116.2108,91.5682
115.9958,91.5295
115.7154,91.5153
115.3767,91.5232
115.0499,91.5474
114.7719,91.5892
114.5072,91.6540
114.4817,91.6615
114.2587,91.7216
114.0150,91.7778
113.7967,91.8197
113.7588,91.8256
113.4194,91.8760
113.4310,92.0659
113.4288,92.2097
113.4090,92.3354
113.4002,92.3623
113.3766,92.4098
113.3631,92.3969
113.3567,92.3139
113.3550,92.2237
113.3478,92.0921
113.3318,92.0031
113.3155,91.9787
113.2800,92.0149
113.2317,92.1067
113.2072,92.1658
113.0866,92.4188
112.9234,92.6735
112.7356,92.9065
112.5413,93.0945
112.4300,93.1753
112.2707,93.2382
112.0793,93.2634
111.9476,93.2763
111.8913,93.3006
111.9123,93.3257
112.0126,93.3412
112.0643,93.3424
112.2053,93.3283
112.3573,93.2912
112.5007,93.2393
112.6159,93.1807
112.6835,93.1236
112.6891,93.0824
112.6988,93.0618
112.7270,93.0685
112.7885,93.0520
112.8942,92.9817
113.0310,92.8667
113.0495,92.8497
113.1629,92.7502
113.2442,92.6895
113.2814,92.6761
113.2808,92.6873
113.2262,92.7853
113.1945,92.8238
113.1604,92.8923
113.1668,92.9263
113.1680,92.9522
113.1507,92.9446
113.0903,92.9490
113.0573,92.9762
113.0400,93.0242
113.0815,93.0760
113.1542,93.1255
113.2628,93.2154
113.3977,93.3601
113.5440,93.5399
113.6869,93.7348
113.8114,93.9251
113.9028,94.0909
113.9332,94.1635
113.9802,94.2212
114.0153,94.2274
114.0543,94.2386
114.0342,94.2587
114.0526,94.2771
114.0390,94.2915
114.0281,94.2901
114.0127,94.3110
114.0324,94.3619
114.0776,94.4589
114.0801,94.4961
114.0489,94.4814
113.9927,94.4229
113.9204,94.3286
113.8408,94.2067
113.8159,94.1643
113.7366,94.0363
113.6831,93.9783
113.6472,93.9821
113.6423,93.9882
113.6194,94.0072
113.6299,93.9489
113.6311,93.9444
113.6422,93.8749
113.6128,93.8724
113.6060,93.8764
113.5724,93.8860
113.5849,93.8569
113.5820,93.7880
113.5284,93.6783
113.4364,93.5444
113.3185,93.4029
113.1869,93.2703
113.0826,93.1835
112.9547,93.0885
112.8019,93.1803
112.7044,93.2391
112.6439,93.2761
112.6364,93.2809
112.6499,93.3178
112.6991,93.4001
112.7253,93.4397
112.7786,93.5219
112.8239,93.6038
112.8671,93.7009
112.9143,93.8286
112.9715,94.0023
113.0448,94.2373
113.0734,94.3307
113.1490,94.5653
113.2125,94.7305
113.2700,94.8404
113.3280,94.9089
113.3375,94.9167
113.4031,94.9785
113.3949,95.0036
113.3825,95.0045
113.3099,94.9734
113.2373,94.9045
113.1326,94.8234
112.9891,94.7730
112.8459,94.7221
112.7056,94.6157
112.6440,94.5534
112.5409,94.4529
112.4531,94.3846
112.4087,94.3653
112.3425,94.3397
112.2424,94.2750
112.1891,94.2335
112.0840,94.1547
111.9966,94.1215
111.8857,94.1225
111.8172,94.1310
111.6964,94.1527
111.6201,94.1761
111.6060,94.1881
111.6393,94.2236
111.7265,94.2927
111.8506,94.3819
111.8842,94.4050
112.0588,94.5346
112.2409,94.6865
112.3783,94.8151
112.5088,94.9563
112.6217,95.0931
112.7057,95.2103
112.7498,95.2927
112.7504,95.3220
112.7144,95.3022
112.6326,95.2358
112.5201,95.1355
112.4768,95.0952
112.2256,94.8937
111.9122,94.6983
111.5595,94.5219
111.2706,94.4055
111.0970,94.3341
111.0006,94.2689
110.9744,94.2024
111.0115,94.1270
111.0143,94.1236
111.0794,94.0728
111.1974,94.0025
111.3439,93.9247
111.4947,93.8518
111.6254,93.7960
111.7118,93.7694
111.7210,93.7686
111.7622,93.7323
111.7688,93.6983
111.8607,93.6983
111.8964,93.8301
111.9900,93.9752
112.1215,94.1123
112.2708,94.2203
112.4099,94.2766
112.4143,94.2409
112.4071,94.1464
112.3991,94.0811
112.3625,93.9094
112.3045,93.7396
112.2348,93.5919
112.1627,93.4861
112.1186,93.4561
112.2970,93.4561
112.3031,93.4867
112.3882,93.8026
112.4577,94.0468
112.5171,94.2303
112.5717,94.3640
112.6268,94.4589
112.6877,94.5260
112.7598,94.5763
112.8483,94.6206
112.8549,94.6236
112.9880,94.6809
113.0616,94.7016
113.0922,94.6882
113.0966,94.6609
113.0789,94.5506
113.0312,94.3857
112.9621,94.1874
112.8801,93.9774
112.7935,93.7769
112.7109,93.6074
112.6407,93.4904
112.6281,93.4742
112.5414,93.3895
112.4597,93.3647
112.4002,93.3718
112.3154,93.4018
112.2970,93.4561
112.1186,93.4561
112.0980,93.4421
112.0936,93.4419
111.9895,93.4791
111.9027,93.5700
111.8613,93.6840
111.8607,93.6983
111.7688,93.6983
111.7755,93.6636
111.8098,93.5589
111.8607,93.5129
111.9288,93.4577
111.9433,93.4072
111.8975,93.3851
111.8468,93.3582
111.7497,93.2859
111.6224,93.1806
111.5378,93.1065
111.3028,92.8682
111.1256,92.6180
110.9916,92.3311
110.8959,92.0214
110.8189,91.7226
110.6260,91.7455
110.5043,91.7582
110.3103,91.7765
110.0568,91.7993
109.7566,91.8255
109.4223,91.8540
109.0667,91.8839
108.7026,91.9141
108.3426,91.9434
107.9995,91.9709
107.6861,91.9955
107.4150,92.0162
107.1991,92.0319
107.0509,92.0415
107.0237,92.0430
106.9646,92.0451
106.9508,92.0434
106.9856,92.0375
107.0727,92.0270
107.2155,92.0117
107.4176,91.9911
107.6825,91.9649
108.0137,91.9328
108.4148,91.8943
108.8892,91.8492
109.4406,91.7971
110.0723,91.7376
110.2517,91.7208
110.7949,91.6698
110.7679,91.3661
110.7525,91.2145
110.7373,91.0998
110.7291,91.0618
110.8075,91.0618
110.8479,91.5244
110.9261,91.9437
111.0390,92.3138
111.1834,92.6286
111.3562,92.8819
111.5541,93.0677
111.7740,93.1800
111.9276,93.2108
111.9911,93.2015
112.1067,93.1734
112.2038,93.1461
112.4325,93.0374
112.6577,92.8530
112.8720,92.6026
113.0682,92.2955
113.2391,91.9414
113.3073,91.7560
113.3950,91.7560
113.4337,91.7798
113.5408,91.7818
113.7028,91.7639
113.9063,91.7279
114.1376,91.6756
114.2899,91.6355
114.5396,91.5744
114.8160,91.5203
115.0973,91.4760
115.3622,91.4446
115.5889,91.4291
115.7559,91.4323
115.7623,91.4330
115.8646,91.4340
115.9223,91.3960
115.9474,91.3029
115.9519,91.1761
115.9149,90.9698
115.8157,90.7767
115.6850,90.6412
115.5917,90.5901
115.4717,90.5638
115.2973,90.5566
115.2802,90.5567
115.0159,90.5836
114.7410,90.6642
114.4421,90.8037
114.1206,90.9974
113.9553,91.1015
113.7970,91.1941
113.6731,91.2594
113.6455,91.2718
113.5420,91.3281
113.4818,91.4075
113.4431,91.5270
113.4142,91.6494
113.3970,91.7369
113.3950,91.7560
113.3073,91.7560
113.3463,91.6503
113.4259,91.3859
113.4681,91.2128
113.5228,91.2128
113.5547,91.2280
113.6413,91.1984
113.7693,91.1303
113.9252,91.0301
113.9535,91.0103
114.0803,90.9300
114.2557,90.8311
114.4508,90.7296
114.5455,90.6834
114.9411,90.4954
114.7966,90.4193
114.6138,90.3613
114.3976,90.3484
114.1866,90.3806
114.0757,90.4230
113.8492,90.5572
113.6952,90.6954
113.6015,90.8503
113.5688,90.9589
113.5424,91.0890
113.5258,91.1849
113.5228,91.2128
113.4681,91.2128
113.4865,91.1370
113.5303,90.8854
113.5595,90.6128
113.5610,90.5865
113.6223,90.5865
113.6281,90.6119
113.6507,90.6149
113.6857,90.5993
113.6791,90.5865
113.6285,90.5814
113.6223,90.5865
113.5610,90.5865
113.5765,90.3009
113.5834,89.9314
113.5838,89.7200
113.5679,89.0566
113.5235,88.4523
113.4515,87.9132
113.3526,87.4454
113.2794,87.1976
113.2230,87.0344
113.1773,86.9216
113.1395,86.8638
113.1069,86.8654
113.0765,86.9311
113.0456,87.0653
113.0114,87.2728
112.9712,87.5579
112.9469,87.7383
112.8858,88.1383
112.8100,88.5414
112.7228,88.9357
112.6275,89.3096
112.5275,89.6512
112.4260,89.9488
112.3264,90.1906
112.2320,90.3648
112.1921,90.4179
112.0774,90.5243
111.9823,90.5497
111.8983,90.4938
111.8379,90.3988
111.7962,90.2598
111.7733,90.0499
111.7684,89.7809
111.7802,89.4648
111.8078,89.1135
111.8503,88.7389
111.9064,88.3530
111.9754,87.9676
112.0560,87.5946
112.0900,87.4568
112.1394,87.2549
112.1763,87.0863
112.1978,86.9662
112.2009,86.9097
112.1985,86.9072
112.1397,86.9421
112.0498,87.0372
111.9393,87.1786
111.8187,87.3522
111.6984,87.5440
111.6214,87.6791
111.2964,88.3497
111.0545,89.0197
110.8939,89.6964
110.8127,90.3874
110.8075,91.0618
110.7291,91.0618
110.7254,91.0450
110.7247,91.0439
110.6808,91.0479
110.5620,91.0671
110.3769,91.0997
110.1340,91.1442
109.8421,91.1990
109.5097,91.2625
109.1456,91.3331
108.9087,91.3796
108.5240,91.4551
108.1616,91.5258
107.8307,91.5901
107.5407,91.6459
107.3009,91.6917
107.1208,91.7255
107.0097,91.7455
106.9810,91.7501
106.8966,91.7593
106.8727,91.7575
106.9121,91.7440
107.0177,91.7182
107.1923,91.6795
107.4388,91.6273
107.7599,91.5609
108.1586,91.4797
108.6376,91.3831
108.7284,91.3649
109.1111,91.2879
109.4710,91.2153
109.7988,91.1489
110.0853,91.0907
110.3210,91.0424
110.4969,91.0061
110.6035,90.9835
110.6294,90.9777
110.6768,90.9629
110.7092,90.9368
110.7305,90.8841
110.7446,90.7896
110.7554,90.6383
110.7650,90.4520
110.7819,90.2079
110.8077,89.9512
110.8383,89.7188
110.8586,89.5995
110.9431,89.2442
111.0603,88.8640
111.2032,88.4752
111.3644,88.0942
111.5368,87.7373
111.7131,87.4206
111.8862,87.1606
111.9972,87.0258
112.1198,86.9027
112.2022,86.8456
112.2463,86.8572
112.2541,86.9403
112.2273,87.0976
112.1785,87.2929
112.0284,87.9342
111.9164,88.5914
111.8480,89.2298
111.8335,89.4856
111.8248,89.8043
111.8282,90.0484
111.8449,90.2277
111.8763,90.3522
111.9236,90.4316
111.9609,90.4623
112.0446,90.4696
112.1360,90.3983
112.2329,90.2546
112.3332,90.0446
112.4349,89.7743
112.5359,89.4499
112.6343,89.0775
112.7279,88.6633
112.8147,88.2132
112.8926,87.7336
112.9040,87.6549
112.9531,87.3285
112.9960,87.0805
113.0342,86.9045
113.0693,86.7940
113.1028,86.7424
113.1186,86.7367
Z" /> 
</g> 
</svg>
